SplineFontDB: 3.0
FontName: Awoof-Mono-Regular
FullName: Awoof Mono
FamilyName: Awoof
Weight: Regular
Copyright: 
Version: 001.000
ItalicAngle: 0
UnderlinePosition: -153.6
UnderlineWidth: 61.44
Ascent: 819
Descent: 205
InvalidEm: 0
sfntRevision: 0x00010000
LayerCount: 2
Layer: 0 1 "Back" 1
Layer: 1 1 "Fore" 0
XUID: [1021 740 1079781356 11858757]
StyleMap: 0x0040
FSType: 0
OS2Version: 4
OS2_WeightWidthSlopeOnly: 0
OS2_UseTypoMetrics: 0
CreationTime: 1513646632
ModificationTime: 1513690428
PfmFamily: 17
TTFWeight: 400
TTFWidth: 5
LineGap: 92
VLineGap: 0
Panose: 2 0 5 3 0 0 0 0 0 0
OS2TypoAscent: 819
OS2TypoAOffset: 0
OS2TypoDescent: -205
OS2TypoDOffset: 0
OS2TypoLinegap: 92
OS2WinAscent: 737
OS2WinAOffset: 0
OS2WinDescent: 25
OS2WinDOffset: 0
HheadAscent: 737
HheadAOffset: 0
HheadDescent: -25
HheadDOffset: 0
OS2SubXSize: 666
OS2SubYSize: 717
OS2SubXOff: 0
OS2SubYOff: 143
OS2SupXSize: 666
OS2SupYSize: 717
OS2SupXOff: 0
OS2SupYOff: 492
OS2StrikeYSize: 50
OS2StrikeYPos: 264
OS2CapHeight: 666
OS2XHeight: 436
OS2Vendor: 'CLGR'
OS2CodePages: 00000001.00000000
OS2UnicodeRanges: 00000003.00000000.00000000.00000000
MarkAttachClasses: 1
DEI: 91125
TtTable: prep
PUSHW_1
 511
SCANCTRL
PUSHB_1
 4
SCANTYPE
EndTTInstrs
ShortTable: cvt  2
  33
  633
EndShort
ShortTable: maxp 16
  1
  0
  100
  84
  7
  0
  0
  2
  0
  1
  1
  0
  64
  0
  0
  0
EndShort
LangName: 1033 "" "" "" "" "" "Version 001.000" "" "" "" "Ellen Dash" "" "" "" "" "" "" "Awoof" "Regular"
GaspTable: 1 65535 15 1
Encoding: UnicodeBmp
UnicodeInterp: none
NameList: AGL For New Fonts
DisplaySize: -48
AntiAlias: 1
FitToEm: 0
WinInfo: 0 38 14
BeginPrivate: 0
EndPrivate
BeginChars: 65538 99

StartChar: .notdef
Encoding: 65536 -1 0
Width: 372
Flags: W
LayerCount: 2
Fore
SplineSet
34 0 m 1,0,-1
 34 682 l 1,1,-1
 305 682 l 1,2,-1
 305 0 l 1,3,-1
 34 0 l 1,0,-1
68 34 m 1,4,-1
 271 34 l 1,5,-1
 271 648 l 1,6,-1
 68 648 l 1,7,-1
 68 34 l 1,4,-1
EndSplineSet
Validated: 1
EndChar

StartChar: exclam
Encoding: 33 33 3
Width: 550
Flags: W
LayerCount: 2
Fore
SplineSet
203 231 m 1,0,-1
 333 231 l 1,1,-1
 333 102 l 1,2,-1
 203 102 l 1,3,-1
 203 231 l 1,0,-1
205 691 m 5,4,-1
 332 691 l 1,5,-1
 332 281 l 1,6,-1
 205 281 l 1,7,-1
 205 691 l 5,4,-1
EndSplineSet
Validated: 1
EndChar

StartChar: quotedbl
Encoding: 34 34 4
Width: 550
Flags: W
LayerCount: 2
Fore
SplineSet
299 692 m 5,0,-1
 377 692 l 5,1,-1
 377 512 l 5,2,-1
 299 512 l 5,3,-1
 299 692 l 5,0,-1
173 692 m 5,4,-1
 248 692 l 5,5,-1
 248 512 l 5,6,-1
 173 512 l 5,7,-1
 173 692 l 5,4,-1
EndSplineSet
Validated: 1
EndChar

StartChar: numbersign
Encoding: 35 35 5
Width: 550
Flags: W
LayerCount: 2
Fore
SplineSet
309 313.5 m 1,0,-1
 309 474.5 l 1,1,-1
 240 474.5 l 1,2,-1
 240 313.5 l 1,3,-1
 309 313.5 l 1,0,-1
169 547.5 m 1,4,-1
 169 639.5 l 1,5,-1
 240 639.5 l 1,6,-1
 240 547.5 l 1,7,-1
 309 547.5 l 1,8,-1
 309 639.5 l 1,9,-1
 381 639.5 l 1,10,-1
 381 547.5 l 1,11,-1
 474 547.5 l 1,12,-1
 474 474.5 l 1,13,-1
 381 474.5 l 1,14,-1
 381 313.5 l 1,15,-1
 474 313.5 l 1,16,-1
 474 242.5 l 1,17,-1
 381 242.5 l 1,18,-1
 381 149.5 l 1,19,-1
 309 149.5 l 1,20,-1
 309 242.5 l 1,21,-1
 240 242.5 l 1,22,-1
 240 149.5 l 1,23,-1
 169 149.5 l 1,24,-1
 169 242.5 l 1,25,-1
 76 242.5 l 1,26,-1
 76 313.5 l 1,27,-1
 169 313.5 l 1,28,-1
 169 474.5 l 1,29,-1
 76 474.5 l 1,30,-1
 76 547.5 l 1,31,-1
 169 547.5 l 1,4,-1
EndSplineSet
Validated: 1
EndChar

StartChar: dollar
Encoding: 36 36 6
Width: 575
Flags: W
LayerCount: 2
Fore
SplineSet
252.5 588.954101562 m 1,0,-1
 252.5 674 l 1,1,-1
 323.5 674 l 1,2,-1
 323.5 588.954101562 l 5,3,-1
 370.5 588.954101562 l 1,4,-1
 370.5 547.5 l 1,5,-1
 416.5 547.5 l 1,6,-1
 416.5 474.5 l 1,7,-1
 345.5 474.5 l 1,8,-1
 345.5 522.5 l 1,9,-1
 323.5 522.5 l 1,10,-1
 323.5 453.5 l 1,11,-1
 370.5 453.5 l 1,12,-1
 370.5 406.5 l 1,13,-1
 416.5 406.5 l 1,14,-1
 416.5 242.5 l 1,15,-1
 370.5 242.5 l 1,16,-1
 370.5 195.5 l 1,17,-1
 323.5 195.5 l 1,18,-1
 323.5 115 l 1,19,-1
 252.5 115 l 1,20,-1
 252.5 195.5 l 1,21,-1
 204.5 195.5 l 1,22,-1
 204.5 242.5 l 1,23,-1
 158.5 242.5 l 1,24,-1
 158.5 313.5 l 1,25,-1
 229.5 313.5 l 1,26,-1
 229.5 267.5 l 1,27,-1
 252.5 267.5 l 1,28,-1
 252.5 381.5 l 1,29,-1
 204.5 381.5 l 1,30,-1
 204.5 428.5 l 1,31,-1
 158.5 428.5 l 1,32,-1
 158.5 547.5 l 1,33,-1
 204.5 547.5 l 1,34,-1
 204.5 588.954101562 l 1,35,-1
 252.5 588.954101562 l 1,0,-1
229.5 453.5 m 1,36,-1
 252.5 453.5 l 1,37,-1
 252.5 522.5 l 1,38,-1
 229.5 522.5 l 1,39,-1
 229.5 453.5 l 1,36,-1
323.5 267.5 m 1,40,-1
 345.5 267.5 l 1,41,-1
 345.5 381.5 l 1,42,-1
 323.5 381.5 l 1,43,-1
 323.5 267.5 l 1,40,-1
EndSplineSet
Validated: 1
EndChar

StartChar: percent
Encoding: 37 37 7
Width: 600
Flags: W
LayerCount: 2
Fore
SplineSet
88 583.74609375 m 1,0,-1
 88 627 l 5,1,-1
 210.191812102 627 l 1,2,-1
 210.191812102 583.74609375 l 1,3,-1
 261.983037025 583.74609375 l 1,4,-1
 261.983037025 474.5 l 1,5,-1
 210.191812102 474.5 l 1,6,-1
 210.191812102 428.5 l 1,7,-1
 88 428.5 l 1,8,-1
 88 474.5 l 1,9,-1
 42 474.5 l 1,10,-1
 42 583.74609375 l 1,11,-1
 88 583.74609375 l 1,0,-1
182.643288207 568.5 m 1,12,-1
 113 568.5 l 1,13,-1
 113 499.5 l 1,14,-1
 182.643288207 499.5 l 1,15,-1
 182.643288207 568.5 l 1,12,-1
387.604305986 313.5 m 1,16,-1
 387.604305986 360.5 l 1,17,-1
 510 360.5 l 1,18,-1
 510 313.5 l 1,19,-1
 558 313.5 l 1,20,-1
 558 208 l 1,21,-1
 510 208 l 1,22,-1
 510 162 l 1,23,-1
 387.604305986 162 l 1,24,-1
 387.604305986 208 l 1,25,-1
 336.915022019 208 l 1,26,-1
 336.915022019 313.5 l 1,27,-1
 387.604305986 313.5 l 1,16,-1
485 288.5 m 1,28,-1
 415.152829881 288.5 l 1,29,-1
 415.152829881 233 l 1,30,-1
 485 233 l 1,31,-1
 485 288.5 l 1,28,-1
113 208 m 1,32,-1
 113 162 l 1,33,-1
 42 162 l 1,34,-1
 42 233 l 1,35,-1
 88 233 l 1,36,-1
 88 273.682617188 l 1,37,-1
 135 273.682617188 l 1,38,-1
 135 313.5 l 1,39,-1
 182.643288207 313.5 l 1,40,-1
 182.643288207 360.5 l 1,41,-1
 234.43451313 360.5 l 1,42,-1
 234.43451313 406.5 l 1,43,-1
 285.123797097 406.5 l 1,44,-1
 285.123797097 453.5 l 1,45,-1
 336.915022019 453.5 l 1,46,-1
 336.915022019 499.5 l 1,47,-1
 387.604305986 499.5 l 1,48,-1
 387.604305986 547.5 l 1,49,-1
 439 547.5 l 1,50,-1
 439 586.267578125 l 1,51,-1
 485 586.267578125 l 1,52,-1
 485 627 l 1,53,-1
 558 627 l 1,54,-1
 558 562.998046875 l 1,55,-1
 510 562.998046875 l 1,56,-1
 510 522.5 l 1,57,-1
 464 522.5 l 1,58,-1
 464 474.5 l 1,59,-1
 415.152829881 474.5 l 1,60,-1
 415.152829881 428.5 l 1,61,-1
 364.463545914 428.5 l 1,62,-1
 364.463545914 381.5 l 1,63,-1
 312.672320992 381.5 l 1,64,-1
 312.672320992 335.5 l 1,65,-1
 261.983037025 335.5 l 1,66,-1
 261.983037025 288.5 l 1,67,-1
 210.191812102 288.5 l 1,68,-1
 210.191812102 248.682617188 l 1,69,-1
 160 248.682617188 l 1,70,-1
 160 208 l 1,71,-1
 113 208 l 1,32,-1
EndSplineSet
Validated: 1
EndChar

StartChar: ampersand
Encoding: 38 38 8
Width: 550
Flags: W
LayerCount: 2
Fore
SplineSet
240 738.5 m 1,0,-1
 311 738.5 l 1,1,-1
 311 620.5 l 1,2,-1
 240 620.5 l 1,3,-1
 240 738.5 l 1,0,-1
246 180.5 m 1,4,-1
 317 180.5 l 1,5,-1
 317 62.5 l 1,6,-1
 246 62.5 l 1,7,-1
 246 180.5 l 1,4,-1
358 552.5 m 1,8,-1
 404 552.5 l 1,9,-1
 404 481.5 l 1,10,-1
 333 481.5 l 1,11,-1
 333 527.5 l 1,12,-1
 217 527.5 l 1,13,-1
 217 458.5 l 1,14,-1
 358 458.5 l 1,15,-1
 358 387.5 l 1,16,-1
 217 387.5 l 1,17,-1
 217 273.5 l 5,18,-1
 333 273.5 l 1,19,-1
 333 319.5 l 1,20,-1
 404 319.5 l 1,21,-1
 404 248.5 l 1,22,-1
 358 248.5 l 1,23,-1
 358 201.5 l 1,24,-1
 199 201.5 l 1,25,-1
 199 248.5 l 1,26,-1
 153 248.5 l 1,27,-1
 153 415 l 1,28,-1
 192 415 l 1,29,-1
 192 433.5 l 1,30,-1
 146 433.5 l 1,31,-1
 146 552.5 l 1,32,-1
 192 552.5 l 1,33,-1
 192 599.5 l 1,34,-1
 358 599.5 l 1,35,-1
 358 552.5 l 1,8,-1
EndSplineSet
Validated: 1
EndChar

StartChar: quotesingle
Encoding: 39 39 9
Width: 550
Flags: W
LayerCount: 2
Fore
SplineSet
239 686 m 1,0,-1
 311 686 l 1,1,-1
 311 520 l 5,2,-1
 239 520 l 1,3,-1
 239 686 l 1,0,-1
EndSplineSet
Validated: 1
EndChar

StartChar: parenleft
Encoding: 40 40 10
Width: 550
Flags: W
LayerCount: 2
Fore
SplineSet
334 98.5 m 1,0,-1
 381 98.5 l 1,1,-1
 381 27.5 l 1,2,-1
 309 27.5 l 1,3,-1
 309 73.5 l 1,4,-1
 263 73.5 l 1,5,-1
 263 120.5 l 1,6,-1
 215 120.5 l 1,7,-1
 215 166.5 l 1,8,-1
 169 166.5 l 1,9,-1
 169 517.5 l 1,10,-1
 215 517.5 l 1,11,-1
 215 564.5 l 1,12,-1
 263 564.5 l 1,13,-1
 263 610.5 l 1,14,-1
 309 610.5 l 1,15,-1
 309 657.5 l 5,16,-1
 381 657.5 l 1,17,-1
 381 585.5 l 1,18,-1
 334 585.5 l 1,19,-1
 334 539.5 l 1,20,-1
 288 539.5 l 1,21,-1
 288 492.5 l 1,22,-1
 240 492.5 l 1,23,-1
 240 191.5 l 1,24,-1
 288 191.5 l 1,25,-1
 288 145.5 l 1,26,-1
 334 145.5 l 1,27,-1
 334 98.5 l 1,0,-1
EndSplineSet
Validated: 1
EndChar

StartChar: parenright
Encoding: 41 41 11
Width: 550
Flags: W
LayerCount: 2
Fore
SplineSet
169 657.5 m 5,0,-1
 240 657.5 l 1,1,-1
 240 610.5 l 1,2,-1
 288 610.5 l 1,3,-1
 288 564.5 l 1,4,-1
 334 564.5 l 1,5,-1
 334 517.5 l 1,6,-1
 381 517.5 l 1,7,-1
 381 166.5 l 1,8,-1
 334 166.5 l 1,9,-1
 334 120.5 l 1,10,-1
 288 120.5 l 1,11,-1
 288 73.5 l 1,12,-1
 240 73.5 l 1,13,-1
 240 27.5 l 1,14,-1
 169 27.5 l 1,15,-1
 169 98.5 l 1,16,-1
 215 98.5 l 1,17,-1
 215 145.5 l 1,18,-1
 263 145.5 l 1,19,-1
 263 191.5 l 1,20,-1
 309 191.5 l 1,21,-1
 309 492.5 l 1,22,-1
 263 492.5 l 1,23,-1
 263 539.5 l 1,24,-1
 215 539.5 l 1,25,-1
 215 585.5 l 1,26,-1
 169 585.5 l 1,27,-1
 169 657.5 l 5,0,-1
EndSplineSet
Validated: 1
EndChar

StartChar: asterisk
Encoding: 42 42 12
Width: 550
Flags: W
LayerCount: 2
Fore
SplineSet
240 564 m 1,0,-1
 240 658 l 1,1,-1
 311 658 l 1,2,-1
 311 564 l 1,3,-1
 404 564 l 1,4,-1
 404 492 l 1,5,-1
 311 492 l 1,6,-1
 311 460 l 1,7,-1
 366 460 l 1,8,-1
 366 354 l 1,9,-1
 301 354 l 1,10,-1
 301 442 l 1,11,-1
 249 442 l 1,12,-1
 249 354 l 1,13,-1
 184 354 l 1,14,-1
 184 460 l 1,15,-1
 240 460 l 1,16,-1
 240 492 l 1,17,-1
 146 492 l 1,18,-1
 146 564 l 1,19,-1
 240 564 l 1,0,-1
EndSplineSet
Validated: 1
EndChar

StartChar: plus
Encoding: 43 43 13
Width: 550
Flags: W
LayerCount: 2
Fore
SplineSet
239 378.5 m 1,0,-1
 239 517.5 l 5,1,-1
 311 517.5 l 1,2,-1
 311 378.5 l 1,3,-1
 450 378.5 l 1,4,-1
 450 305.5 l 1,5,-1
 311 305.5 l 1,6,-1
 311 166.5 l 1,7,-1
 239 166.5 l 1,8,-1
 239 305.5 l 1,9,-1
 100 305.5 l 1,10,-1
 100 378.5 l 1,11,-1
 239 378.5 l 1,0,-1
EndSplineSet
Validated: 1
EndChar

StartChar: comma
Encoding: 44 44 14
Width: 550
Flags: W
LayerCount: 2
Fore
SplineSet
239 127.5 m 1,0,-1
 239 220.5 l 5,1,-1
 357 220.5 l 1,2,-1
 357 102.5 l 1,3,-1
 311 102.5 l 1,4,-1
 311 56.5 l 1,5,-1
 193 56.5 l 1,6,-1
 193 127.5 l 1,7,-1
 239 127.5 l 1,0,-1
EndSplineSet
Validated: 1
EndChar

StartChar: hyphen
Encoding: 45 45 15
Width: 550
Flags: W
LayerCount: 2
Fore
SplineSet
76 384 m 1,0,-1
 474 384 l 5,1,-1
 474 313 l 1,2,-1
 76 313 l 1,3,-1
 76 384 l 1,0,-1
EndSplineSet
Validated: 1
EndChar

StartChar: period
Encoding: 46 46 16
Width: 550
Flags: W
LayerCount: 2
Fore
SplineSet
216 226.5 m 5,0,-1
 334 226.5 l 1,1,-1
 334 108.5 l 1,2,-1
 216 108.5 l 1,3,-1
 216 226.5 l 5,0,-1
EndSplineSet
Validated: 1
EndChar

StartChar: slash
Encoding: 47 47 17
Width: 550
Flags: W
LayerCount: 2
Fore
SplineSet
194 198.5 m 1,0,-1
 194 104.5 l 1,1,-1
 122 104.5 l 1,2,-1
 122 223.5 l 1,3,-1
 169 223.5 l 1,4,-1
 169 316.5 l 1,5,-1
 215 316.5 l 1,6,-1
 215 410.5 l 1,7,-1
 263 410.5 l 1,8,-1
 263 504.5 l 1,9,-1
 310 504.5 l 1,10,-1
 310 597.5 l 1,11,-1
 357 597.5 l 1,12,-1
 357 691.5 l 5,13,-1
 428 691.5 l 1,14,-1
 428 572.5 l 1,15,-1
 382 572.5 l 1,16,-1
 382 479.5 l 1,17,-1
 335 479.5 l 1,18,-1
 335 385.5 l 1,19,-1
 288 385.5 l 1,20,-1
 288 291.5 l 1,21,-1
 240 291.5 l 1,22,-1
 240 198.5 l 1,23,-1
 194 198.5 l 1,0,-1
EndSplineSet
Validated: 1
EndChar

StartChar: zero
Encoding: 48 48 18
Width: 600
Flags: W
LayerCount: 2
Fore
SplineSet
204.5 633.634765625 m 1,0,-1
 204.5 679 l 1,1,-1
 395.5 679 l 1,2,-1
 395.5 633.634765625 l 1,3,-1
 441.5 633.634765625 l 1,4,-1
 441.5 588.862304688 l 1,5,-1
 488.5 588.862304688 l 1,6,-1
 488.5 208.772460938 l 1,7,-1
 441.5 208.772460938 l 1,8,-1
 441.5 164 l 1,9,-1
 395.5 164 l 1,10,-1
 395.5 117 l 1,11,-1
 204.5 117 l 1,12,-1
 204.5 164 l 1,13,-1
 158.5 164 l 1,14,-1
 158.5 208.772460938 l 1,15,-1
 111.5 208.772460938 l 1,16,-1
 111.5 588.862304688 l 1,17,-1
 158.5 588.862304688 l 1,18,-1
 158.5 633.634765625 l 1,19,-1
 204.5 633.634765625 l 1,0,-1
416.5 526.5 m 1,20,-1
 395.5 526.5 l 5,21,-1
 395.5 431.5 l 1,22,-1
 344.471385542 431.5 l 1,23,-1
 344.471385542 338.5 l 1,24,-1
 286.411521084 338.5 l 1,25,-1
 286.411521084 244.5 l 1,26,-1
 229.5 244.5 l 1,27,-1
 229.5 189 l 1,28,-1
 370.5 189 l 1,29,-1
 370.5 234.321289062 l 1,30,-1
 416.5 234.321289062 l 1,31,-1
 416.5 526.5 l 1,20,-1
370.5 551.5 m 1,32,-1
 370.5 619.5 l 1,33,-1
 229.5 619.5 l 1,34,-1
 229.5 572.5 l 1,35,-1
 183.5 572.5 l 1,36,-1
 183.5 269.5 l 1,37,-1
 204.5 269.5 l 1,38,-1
 204.5 363.5 l 1,39,-1
 255.528614458 363.5 l 1,40,-1
 255.528614458 456.5 l 1,41,-1
 313.588478916 456.5 l 1,42,-1
 313.588478916 551.5 l 1,43,-1
 370.5 551.5 l 1,32,-1
EndSplineSet
Validated: 1
EndChar

StartChar: one
Encoding: 49 49 19
Width: 600
Flags: W
LayerCount: 2
Fore
SplineSet
204.5 633.716796875 m 1,0,-1
 204.5 679 l 1,1,-1
 344.471385542 679 l 1,2,-1
 344.471385542 189 l 1,3,-1
 488.5 189 l 1,4,-1
 488.5 117 l 1,5,-1
 111.5 117 l 1,6,-1
 111.5 189 l 1,7,-1
 255.528614458 189 l 1,8,-1
 255.528614458 609.959960938 l 1,9,-1
 229.5 609.959960938 l 1,10,-1
 229.5 565.298828125 l 1,11,-1
 158.5 565.298828125 l 1,12,-1
 158.5 633.716796875 l 1,13,-1
 204.5 633.716796875 l 1,0,-1
EndSplineSet
Validated: 1
EndChar

StartChar: two
Encoding: 50 50 20
Width: 600
Flags: W
LayerCount: 2
Fore
SplineSet
217 211 m 1,0,-1
 183.5 211 l 1,1,-1
 183.5 189 l 1,2,-1
 488.5 189 l 1,3,-1
 488.5 117 l 1,4,-1
 111.5 117 l 1,5,-1
 111.5 236 l 1,6,-1
 158.5 236 l 1,7,-1
 158.5 269.5 l 1,8,-1
 204.5 269.5 l 1,9,-1
 204.5 316.5 l 1,10,-1
 255.528614458 316.5 l 1,11,-1
 255.528614458 363.5 l 1,12,-1
 313.588478916 363.5 l 1,13,-1
 313.588478916 410.5 l 1,14,-1
 370.5 410.5 l 1,15,-1
 370.5 456.5 l 1,16,-1
 416.5 456.5 l 1,17,-1
 416.5 565.983398438 l 1,18,-1
 370.5 565.983398438 l 1,19,-1
 370.5 610.342773438 l 1,20,-1
 229.5 610.342773438 l 1,21,-1
 229.5 565.983398438 l 1,22,-1
 183.5 565.983398438 l 1,23,-1
 183.5 522.567382812 l 1,24,-1
 111.5 522.567382812 l 1,25,-1
 111.5 589.579101562 l 1,26,-1
 158.5 589.579101562 l 1,27,-1
 158.5 633.938476562 l 1,28,-1
 204.5 633.938476562 l 1,29,-1
 204.5 679 l 1,30,-1
 395.5 679 l 5,31,-1
 395.5 633.7421875 l 1,32,-1
 441.5 633.7421875 l 1,33,-1
 441.5 589.116210938 l 1,34,-1
 488.5 589.116210938 l 1,35,-1
 488.5 431.5 l 1,36,-1
 441.5 431.5 l 1,37,-1
 441.5 385.5 l 1,38,-1
 395.5 385.5 l 1,39,-1
 395.5 338.5 l 1,40,-1
 344.471385542 338.5 l 1,41,-1
 344.471385542 291.5 l 1,42,-1
 286.411521084 291.5 l 1,43,-1
 286.411521084 244.5 l 1,44,-1
 229.5 244.5 l 1,45,-1
 229.5 211 l 1,46,-1
 217 211 l 1,0,-1
EndSplineSet
Validated: 1
EndChar

StartChar: three
Encoding: 51 51 21
Width: 600
Flags: W
LayerCount: 2
Fore
SplineSet
180.5 637.291015625 m 1,0,-1
 230.274896266 637.291015625 l 1,1,-1
 230.274896266 679 l 1,2,-1
 418.5 679 l 1,3,-1
 418.5 637.291015625 l 1,4,-1
 465.5 637.291015625 l 1,5,-1
 465.5 597.5 l 1,6,-1
 512.5 597.5 l 1,7,-1
 512.5 479.5 l 1,8,-1
 465.5 479.5 l 1,9,-1
 465.5 431.5 l 1,10,-1
 418.5 431.5 l 1,11,-1
 418.5 410.5 l 1,12,-1
 465.5 410.5 l 1,13,-1
 465.5 363.5 l 1,14,-1
 512.5 363.5 l 1,15,-1
 512.5 208.228515625 l 1,16,-1
 465.5 208.228515625 l 1,17,-1
 465.5 164 l 1,18,-1
 418.5 164 l 1,19,-1
 418.5 117 l 1,20,-1
 134.5 117 l 1,21,-1
 134.5 164 l 1,22,-1
 87.5 164 l 1,23,-1
 87.5 236 l 1,24,-1
 159.5 236 l 1,25,-1
 159.5 189 l 1,26,-1
 393.5 189 l 1,27,-1
 393.5 232.373046875 l 1,28,-1
 440.5 232.373046875 l 1,29,-1
 440.5 338.5 l 1,30,-1
 393.5 338.5 l 1,31,-1
 393.5 385.5 l 1,32,-1
 286.054979253 385.5 l 1,33,-1
 286.054979253 456.5 l 1,34,-1
 393.5 456.5 l 1,35,-1
 393.5 504.5 l 1,36,-1
 440.5 504.5 l 1,37,-1
 440.5 572.5 l 1,38,-1
 393.5 572.5 l 1,39,-1
 393.5 619.5 l 1,40,-1
 259.327022822 619.5 l 1,41,-1
 259.327022822 572.5 l 1,42,-1
 205.5 572.5 l 1,43,-1
 205.5 526.5 l 1,44,-1
 134.5 526.5 l 1,45,-1
 134.5 597.5 l 1,46,-1
 180.5 597.5 l 1,47,-1
 180.5 637.291015625 l 1,0,-1
EndSplineSet
Validated: 1
EndChar

StartChar: four
Encoding: 52 52 22
Width: 600
Flags: W
LayerCount: 2
Fore
SplineSet
441 679 m 1,0,-1
 441 412 l 1,1,-1
 488 412 l 1,2,3
 488 376 488 376 488 339 c 1,4,-1
 442 339 l 1,5,-1
 442 117 l 1,6,-1
 370 117 l 1,7,-1
 370 338 l 1,8,-1
 112 338 l 1,9,-1
 112 679 l 1,10,-1
 184 679 l 1,11,-1
 184 410 l 5,12,-1
 370 410 l 1,13,-1
 370 679 l 1,14,-1
 441 679 l 1,0,-1
EndSplineSet
Validated: 1
EndChar

StartChar: five
Encoding: 53 53 23
Width: 600
Flags: W
LayerCount: 2
Fore
SplineSet
111 390 m 1,0,-1
 111 685 l 1,1,-1
 488 685 l 1,2,-1
 488 613 l 1,3,-1
 183 613 l 1,4,-1
 183 464 l 1,5,-1
 395 464 l 1,6,-1
 395 415 l 1,7,-1
 441 415 l 1,8,-1
 441 369 l 1,9,-1
 488 369 l 1,10,-1
 488 213 l 1,11,-1
 441 213 l 1,12,-1
 441 170 l 1,13,-1
 395 170 l 1,14,-1
 395 123 l 1,15,-1
 158 123 l 1,16,-1
 158 170 l 1,17,-1
 111 170 l 1,18,-1
 111 241 l 5,19,-1
 183 241 l 1,20,-1
 183 195 l 1,21,-1
 370 195 l 1,22,-1
 370 237 l 1,23,-1
 416 237 l 1,24,-1
 416 344 l 1,25,-1
 370 344 l 1,26,-1
 370 390 l 1,27,-1
 111 390 l 1,0,-1
EndSplineSet
Validated: 1
EndChar

StartChar: six
Encoding: 54 54 24
Width: 600
Flags: W
LayerCount: 2
Fore
SplineSet
158 170 m 1,0,-1
 158 214 l 1,1,-1
 111 214 l 1,2,-1
 111 556 l 1,3,-1
 158 556 l 1,4,-1
 158 650 l 1,5,-1
 204 650 l 1,6,-1
 204 685 l 5,7,-1
 441 685 l 1,8,-1
 441 650 l 1,9,-1
 488 650 l 1,10,-1
 488 578 l 1,11,-1
 416 578 l 1,12,-1
 416 625 l 1,13,-1
 229 625 l 1,14,-1
 229 531 l 1,15,-1
 183 531 l 1,16,-1
 183 415 l 1,17,-1
 204 415 l 1,18,-1
 204 463 l 1,19,-1
 395 463 l 1,20,-1
 395 415 l 1,21,-1
 441 415 l 1,22,-1
 441 369 l 1,23,-1
 488 369 l 1,24,-1
 488 213 l 1,25,-1
 441 213 l 1,26,-1
 441 170 l 1,27,-1
 395 170 l 1,28,-1
 395 123 l 1,29,-1
 204 123 l 1,30,-1
 204 170 l 1,31,-1
 158 170 l 1,0,-1
183 344 m 1,32,-1
 183 237 l 1,33,-1
 229 237 l 1,34,-1
 229 195 l 1,35,-1
 370 195 l 1,36,-1
 370 237 l 1,37,-1
 416 237 l 1,38,-1
 416 344 l 1,39,-1
 370 344 l 1,40,-1
 370 390 l 1,41,-1
 229 390 l 1,42,-1
 229 344 l 1,43,-1
 183 344 l 1,32,-1
EndSplineSet
Validated: 1
EndChar

StartChar: seven
Encoding: 55 55 25
Width: 600
Flags: W
LayerCount: 2
Fore
SplineSet
111 613 m 1,0,-1
 111 685 l 1,1,-1
 488 685 l 1,2,-1
 488 527 l 1,3,-1
 441 527 l 1,4,-1
 441 463 l 1,5,-1
 488 463 l 1,6,-1
 488 390 l 1,7,-1
 395 390 l 1,8,-1
 395 344 l 1,9,-1
 344 344 l 1,10,-1
 344 250 l 1,11,-1
 286 250 l 1,12,-1
 286 123 l 1,13,-1
 204 123 l 1,14,-1
 204 275 l 1,15,-1
 255 275 l 1,16,-1
 255 369 l 5,17,-1
 313 369 l 1,18,-1
 313 390 l 1,19,-1
 204 390 l 1,20,-1
 204 463 l 1,21,-1
 370 463 l 1,22,-1
 370 549 l 1,23,-1
 416 549 l 1,24,-1
 416 613 l 1,25,-1
 111 613 l 1,0,-1
EndSplineSet
Validated: 1
EndChar

StartChar: eight
Encoding: 56 56 26
Width: 600
Flags: W
LayerCount: 2
Fore
SplineSet
393 340 m 5,0,-1
 393 387 l 1,1,-1
 206 387 l 1,2,-1
 206 340 l 1,3,-1
 159 340 l 1,4,-1
 159 235 l 1,5,-1
 206 235 l 1,6,-1
 206 193 l 1,7,-1
 393 193 l 1,8,-1
 393 235 l 1,9,-1
 439 235 l 1,10,-1
 439 340 l 1,11,-1
 393 340 l 5,0,-1
393 574 m 1,12,-1
 393 620 l 1,13,-1
 206 620 l 1,14,-1
 206 574 l 1,15,-1
 159 574 l 1,16,-1
 159 506 l 1,17,-1
 206 506 l 1,18,-1
 206 458 l 1,19,-1
 393 458 l 1,20,-1
 393 506 l 1,21,-1
 439 506 l 1,22,-1
 439 574 l 1,23,-1
 393 574 l 1,12,-1
88 599 m 1,24,-1
 134 599 l 1,25,-1
 134 638 l 1,26,-1
 181 638 l 1,27,-1
 181 680 l 1,28,-1
 418 680 l 1,29,-1
 418 638 l 1,30,-1
 464 638 l 1,31,-1
 464 599 l 1,32,-1
 511 599 l 1,33,-1
 511 481 l 1,34,-1
 464 481 l 1,35,-1
 464 433 l 1,36,-1
 418 433 l 1,37,-1
 418 412 l 1,38,-1
 464 412 l 1,39,-1
 464 365 l 1,40,-1
 511 365 l 1,41,-1
 511 211 l 1,42,-1
 464 211 l 1,43,-1
 464 168 l 1,44,-1
 418 168 l 1,45,-1
 418 121 l 1,46,-1
 181 121 l 1,47,-1
 181 168 l 1,48,-1
 134 168 l 1,49,-1
 134 211 l 1,50,-1
 88 211 l 1,51,-1
 88 365 l 1,52,-1
 134 365 l 1,53,-1
 134 412 l 1,54,-1
 181 412 l 1,55,-1
 181 433 l 1,56,-1
 134 433 l 1,57,-1
 134 481 l 1,58,-1
 88 481 l 1,59,-1
 88 599 l 1,24,-1
EndSplineSet
Validated: 1
EndChar

StartChar: nine
Encoding: 57 57 27
Width: 600
Flags: W
LayerCount: 2
Fore
SplineSet
369 574 m 1,0,-1
 369 620 l 1,1,-1
 230 620 l 1,2,-1
 230 574 l 1,3,-1
 183 574 l 5,4,-1
 183 506 l 1,5,-1
 230 506 l 1,6,-1
 230 458 l 1,7,-1
 369 458 l 1,8,-1
 369 506 l 1,9,-1
 416 506 l 1,10,-1
 416 574 l 1,11,-1
 369 574 l 1,0,-1
158 638 m 1,12,-1
 205 638 l 1,13,-1
 205 680 l 1,14,-1
 394 680 l 1,15,-1
 394 638 l 1,16,-1
 441 638 l 1,17,-1
 441 599 l 1,18,-1
 487 599 l 1,19,-1
 487 121 l 1,20,-1
 416 121 l 1,21,-1
 416 433 l 1,22,-1
 394 433 l 1,23,-1
 394 387 l 1,24,-1
 205 387 l 1,25,-1
 205 433 l 1,26,-1
 158 433 l 1,27,-1
 158 481 l 1,28,-1
 112 481 l 1,29,-1
 112 599 l 1,30,-1
 158 599 l 1,31,-1
 158 638 l 1,12,-1
EndSplineSet
Validated: 1
EndChar

StartChar: colon
Encoding: 58 58 28
Width: 550
Flags: W
LayerCount: 2
Fore
SplineSet
216 108 m 1,0,-1
 216 226 l 1,1,-1
 334 226 l 5,2,-1
 334 108 l 1,3,-1
 216 108 l 1,0,-1
216 340 m 1,4,-1
 216 458 l 1,5,-1
 334 458 l 1,6,-1
 334 340 l 1,7,-1
 216 340 l 1,4,-1
EndSplineSet
Validated: 1
EndChar

StartChar: semicolon
Encoding: 59 59 29
Width: 550
Flags: W
LayerCount: 2
Fore
SplineSet
239 134 m 1,0,-1
 239 226 l 1,1,-1
 357 226 l 1,2,-1
 357 108 l 1,3,-1
 311 108 l 1,4,-1
 311 62 l 1,5,-1
 193 62 l 1,6,-1
 193 134 l 1,7,-1
 239 134 l 1,0,-1
239 340 m 1,8,-1
 239 458 l 1,9,-1
 357 458 l 1,10,-1
 357 340 l 1,11,-1
 239 340 l 1,8,-1
EndSplineSet
Validated: 1
EndChar

StartChar: less
Encoding: 60 60 30
Width: 550
Flags: W
LayerCount: 2
Fore
SplineSet
333 506 m 1,0,-1
 333 552 l 1,1,-1
 404 552 l 1,2,-1
 404 482 l 1,3,-1
 358 482 l 1,4,-1
 358 434 l 1,5,-1
 311 434 l 1,6,-1
 311 388 l 1,7,-1
 265 388 l 1,8,-1
 265 340 l 1,9,-1
 217 340 l 1,10,-1
 217 320 l 1,11,-1
 265 320 l 1,12,-1
 265 274 l 1,13,-1
 311 274 l 1,14,-1
 311 226 l 1,15,-1
 358 226 l 1,16,-1
 358 180 l 1,17,-1
 404 180 l 1,18,-1
 404 108 l 1,19,-1
 333 108 l 1,20,-1
 333 156 l 1,21,-1
 286 156 l 1,22,-1
 286 202 l 1,23,-1
 240 202 l 1,24,-1
 240 248 l 1,25,-1
 192 248 l 1,26,-1
 192 294 l 1,27,-1
 146 294 l 1,28,-1
 146 366 l 1,29,-1
 192 366 l 1,30,-1
 192 412 l 1,31,-1
 240 412 l 1,32,-1
 240 458 l 1,33,-1
 286 458 l 1,34,-1
 286 506 l 1,35,-1
 333 506 l 1,0,-1
EndSplineSet
Validated: 1
EndChar

StartChar: equal
Encoding: 61 61 31
Width: 550
Flags: W
LayerCount: 2
Fore
SplineSet
100 202 m 1,0,-1
 100 274 l 1,1,-1
 450 274 l 1,2,-1
 450 202 l 1,3,-1
 100 202 l 1,0,-1
100 340 m 1,4,-1
 100 412 l 5,5,-1
 450 412 l 1,6,-1
 450 340 l 1,7,-1
 100 340 l 1,4,-1
EndSplineSet
Validated: 1
EndChar

StartChar: greater
Encoding: 62 62 32
Width: 550
Flags: W
LayerCount: 2
Fore
SplineSet
146 500 m 1,0,-1
 146 546 l 1,1,-1
 146 558 l 1,2,-1
 158 558 l 1,3,-1
 204 558 l 1,4,-1
 217 558 l 1,5,-1
 217 546 l 1,6,-1
 217 512 l 1,7,-1
 252 512 l 1,8,-1
 265 512 l 1,9,-1
 265 500 l 1,10,-1
 265 466 l 1,11,-1
 298 466 l 1,12,-1
 311 466 l 1,13,-1
 311 453 l 1,14,-1
 311 420 l 1,15,-1
 346 420 l 1,16,-1
 358 420 l 1,17,-1
 358 407 l 1,18,-1
 358 372 l 1,19,-1
 392 372 l 1,20,-1
 404 372 l 1,21,-1
 404 359 l 1,22,-1
 404 313 l 1,23,-1
 404 300 l 1,24,-1
 392 300 l 1,25,-1
 358 300 l 1,26,-1
 358 266 l 1,27,-1
 358 254 l 1,28,-1
 346 254 l 1,29,-1
 311 254 l 1,30,-1
 311 220 l 1,31,-1
 311 208 l 1,32,-1
 298 208 l 1,33,-1
 265 208 l 1,34,-1
 265 173 l 1,35,-1
 265 160 l 1,36,-1
 252 160 l 1,37,-1
 217 160 l 1,38,-1
 217 127 l 1,39,-1
 217 114 l 1,40,-1
 204 114 l 1,41,-1
 158 114 l 1,42,-1
 146 114 l 1,43,-1
 146 127 l 1,44,-1
 146 173 l 1,45,-1
 146 186 l 1,46,-1
 158 186 l 1,47,-1
 192 186 l 1,48,-1
 192 220 l 1,49,-1
 192 232 l 1,50,-1
 204 232 l 1,51,-1
 240 232 l 1,52,-1
 240 266 l 1,53,-1
 240 278 l 1,54,-1
 252 278 l 1,55,-1
 286 278 l 1,56,-1
 286 313 l 1,57,-1
 286 326 l 1,58,-1
 298 326 l 1,59,-1
 333 326 l 1,60,-1
 333 346 l 1,61,-1
 298 346 l 1,62,-1
 286 346 l 1,63,-1
 286 359 l 1,64,-1
 286 394 l 1,65,-1
 252 394 l 1,66,-1
 240 394 l 1,67,-1
 240 407 l 1,68,-1
 240 440 l 1,69,-1
 204 440 l 1,70,-1
 192 440 l 1,71,-1
 192 453 l 1,72,-1
 192 488 l 1,73,-1
 158 488 l 1,74,-1
 146 488 l 1,75,-1
 146 500 l 1,0,-1
EndSplineSet
Validated: 1
EndChar

StartChar: question
Encoding: 63 63 33
Width: 550
Flags: W
LayerCount: 2
Fore
SplineSet
239 127 m 1,0,-1
 239 220 l 1,1,-1
 239 232 l 1,2,-1
 252 232 l 1,3,-1
 298 232 l 1,4,-1
 311 232 l 1,5,-1
 311 220 l 1,6,-1
 311 127 l 1,7,-1
 311 114 l 1,8,-1
 298 114 l 1,9,-1
 252 114 l 1,10,-1
 239 114 l 1,11,-1
 239 127 l 1,0,-1
404 488 m 1,12,-1
 404 453 l 1,13,-1
 404 440 l 1,14,-1
 392 440 l 1,15,-1
 357 440 l 1,16,-1
 357 407 l 1,17,-1
 357 394 l 1,18,-1
 344 394 l 1,19,-1
 311 394 l 1,20,-1
 311 313 l 1,21,-1
 311 300 l 1,22,-1
 298 300 l 1,23,-1
 252 300 l 1,24,-1
 239 300 l 1,25,-1
 239 313 l 1,26,-1
 239 453 l 1,27,-1
 239 466 l 1,28,-1
 252 466 l 1,29,-1
 332 466 l 1,30,-1
 332 500 l 1,31,-1
 332 512 l 1,32,-1
 344 512 l 1,33,-1
 379 512 l 1,34,-1
 379 580 l 1,35,-1
 344 580 l 1,36,-1
 332 580 l 1,37,-1
 332 592 l 1,38,-1
 332 626 l 1,39,-1
 218 626 l 1,40,-1
 218 592 l 1,41,-1
 218 580 l 1,42,-1
 206 580 l 1,43,-1
 171 580 l 1,44,-1
 171 546 l 1,45,-1
 171 534 l 1,46,-1
 158 534 l 1,47,-1
 112 534 l 1,48,-1
 100 534 l 1,49,-1
 100 546 l 1,50,-1
 100 592 l 1,51,-1
 100 604 l 1,52,-1
 112 604 l 1,53,-1
 146 604 l 1,54,-1
 146 639 l 1,55,-1
 146 652 l 1,56,-1
 158 652 l 1,57,-1
 193 652 l 1,58,-1
 193 685 l 1,59,-1
 193 698 l 1,60,-1
 206 698 l 1,61,-1
 344 698 l 1,62,-1
 357 698 l 1,63,-1
 357 685 l 1,64,-1
 357 652 l 1,65,-1
 392 652 l 1,66,-1
 404 652 l 1,67,-1
 404 639 l 1,68,-1
 404 604 l 1,69,-1
 438 604 l 1,70,-1
 450 604 l 1,71,-1
 450 592 l 1,72,-1
 450 500 l 1,73,-1
 450 488 l 1,74,-1
 438 488 l 1,75,-1
 404 488 l 1,12,-1
EndSplineSet
Validated: 1
EndChar

StartChar: at
Encoding: 64 64 34
Width: 550
Flags: W
LayerCount: 2
Fore
SplineSet
347 466 m 1,0,-1
 393 466 l 1,1,-1
 393 278 l 1,2,-1
 461 278 l 1,3,-1
 461 464 l 1,4,-1
 415 464 l 1,5,-1
 415 512 l 1,6,-1
 367 512 l 1,7,-1
 367 558 l 1,8,-1
 181 558 l 1,9,-1
 181 512 l 1,10,-1
 135 512 l 1,11,-1
 135 464 l 1,12,-1
 87 464 l 1,13,-1
 87 254 l 1,14,-1
 135 254 l 1,15,-1
 135 208 l 1,16,-1
 347 208 l 1,17,-1
 347 136 l 1,18,-1
 109 136 l 1,19,-1
 109 184 l 1,20,-1
 63 184 l 1,21,-1
 63 230 l 1,22,-1
 17 230 l 1,23,-1
 17 490 l 1,24,-1
 63 490 l 1,25,-1
 63 536 l 1,26,-1
 109 536 l 1,27,-1
 109 582 l 1,28,-1
 155 582 l 1,29,-1
 155 628 l 1,30,-1
 393 628 l 1,31,-1
 393 582 l 1,32,-1
 439 582 l 1,33,-1
 439 536 l 1,34,-1
 485 536 l 1,35,-1
 485 490 l 1,36,-1
 533 490 l 1,37,-1
 533 254 l 1,38,-1
 485 254 l 1,39,-1
 485 208 l 1,40,-1
 367 208 l 1,41,-1
 367 254 l 1,42,-1
 329 254 l 1,43,-1
 329 300 l 1,44,-1
 299 300 l 1,45,-1
 299 254 l 1,46,-1
 181 254 l 1,47,-1
 181 300 l 1,48,-1
 135 300 l 1,49,-1
 135 420 l 1,50,-1
 181 420 l 1,51,-1
 181 466 l 1,52,-1
 229 466 l 1,53,-1
 229 512 l 1,54,-1
 347 512 l 1,55,-1
 347 466 l 1,0,-1
321 440 m 1,56,-1
 253 440 l 1,57,-1
 253 394 l 1,58,-1
 207 394 l 1,59,-1
 207 326 l 1,60,-1
 275 326 l 1,61,-1
 275 372 l 1,62,-1
 321 372 l 1,63,-1
 321 440 l 1,56,-1
EndSplineSet
EndChar

StartChar: A
Encoding: 65 65 35
Width: 600
Flags: W
LayerCount: 2
Fore
SplineSet
370 574 m 1,0,-1
 370 587 l 1,1,-1
 370 620 l 1,2,-1
 230 620 l 1,3,-1
 230 587 l 1,4,-1
 230 574 l 1,5,-1
 218 574 l 1,6,-1
 184 574 l 1,7,-1
 184 412 l 1,8,-1
 416 412 l 1,9,-1
 416 574 l 1,10,-1
 382 574 l 1,11,-1
 370 574 l 1,0,-1
171 635 m 1,12,-1
 206 635 l 1,13,-1
 206 668 l 1,14,-1
 206 680 l 1,15,-1
 218 680 l 1,16,-1
 382 680 l 1,17,-1
 394 680 l 1,18,-1
 394 668 l 1,19,-1
 394 635 l 1,20,-1
 429 635 l 1,21,-1
 442 635 l 1,22,-1
 442 623 l 1,23,-1
 442 590 l 1,24,-1
 475 590 l 1,25,-1
 488 590 l 1,26,-1
 488 578 l 1,27,-1
 488 121 l 1,28,-1
 488 108 l 1,29,-1
 475 108 l 1,30,-1
 429 108 l 1,31,-1
 416 108 l 1,32,-1
 416 121 l 1,33,-1
 416 340 l 1,34,-1
 184 340 l 1,35,-1
 184 121 l 1,36,-1
 184 108 l 1,37,-1
 171 108 l 1,38,-1
 125 108 l 1,39,-1
 112 108 l 1,40,-1
 112 121 l 1,41,-1
 112 578 l 1,42,-1
 112 590 l 1,43,-1
 125 590 l 1,44,-1
 158 590 l 1,45,-1
 158 623 l 1,46,-1
 158 635 l 1,47,-1
 171 635 l 1,12,-1
EndSplineSet
Validated: 1
EndChar

StartChar: B
Encoding: 66 66 36
Width: 600
Flags: W
LayerCount: 2
Fore
SplineSet
370 340 m 1,0,-1
 370 353 l 1,1,-1
 370 388 l 1,2,-1
 184 388 l 1,3,-1
 184 180 l 1,4,-1
 370 180 l 1,5,-1
 370 214 l 1,6,-1
 370 226 l 1,7,-1
 382 226 l 1,8,-1
 416 226 l 1,9,-1
 416 340 l 1,10,-1
 382 340 l 1,11,-1
 370 340 l 1,0,-1
370 574 m 1,12,-1
 370 587 l 1,13,-1
 370 620 l 1,14,-1
 184 620 l 1,15,-1
 184 458 l 1,16,-1
 370 458 l 1,17,-1
 370 494 l 1,18,-1
 370 506 l 1,19,-1
 382 506 l 1,20,-1
 416 506 l 1,21,-1
 416 574 l 1,22,-1
 382 574 l 1,23,-1
 370 574 l 1,12,-1
112 108 m 1,24,-1
 112 121 l 1,25,-1
 112 668 l 1,26,-1
 112 680 l 1,27,-1
 125 680 l 1,28,-1
 382 680 l 1,29,-1
 394 680 l 1,30,-1
 394 668 l 1,31,-1
 394 636 l 1,32,-1
 429 636 l 1,33,-1
 442 636 l 1,34,-1
 442 624 l 1,35,-1
 442 593 l 1,36,-1
 475 593 l 1,37,-1
 488 593 l 1,38,-1
 488 581 l 1,39,-1
 488 493 l 1,40,-1
 488 482 l 1,41,-1
 475 482 l 1,42,-1
 442 482 l 1,43,-1
 442 446 l 1,44,-1
 442 434 l 1,45,-1
 429 434 l 1,46,-1
 394 434 l 1,47,-1
 394 412 l 1,48,-1
 429 412 l 1,49,-1
 442 412 l 1,50,-1
 442 400 l 1,51,-1
 442 366 l 1,52,-1
 475 366 l 1,53,-1
 488 366 l 1,54,-1
 488 353 l 1,55,-1
 488 214 l 1,56,-1
 488 202 l 1,57,-1
 475 202 l 1,58,-1
 442 202 l 1,59,-1
 442 168 l 1,60,-1
 442 156 l 1,61,-1
 429 156 l 1,62,-1
 394 156 l 1,63,-1
 394 121 l 1,64,-1
 394 108 l 1,65,-1
 382 108 l 1,66,-1
 125 108 l 1,67,-1
 112 108 l 1,24,-1
EndSplineSet
Validated: 1
EndChar

StartChar: C
Encoding: 67 67 37
Width: 600
Flags: W
LayerCount: 2
Fore
SplineSet
382 226 m 1,0,-1
 416 226 l 1,1,-1
 416 261 l 1,2,-1
 416 274 l 1,3,-1
 429 274 l 1,4,-1
 475 274 l 1,5,-1
 488 274 l 1,6,-1
 488 261 l 1,7,-1
 488 214 l 1,8,-1
 488 202 l 1,9,-1
 475 202 l 1,10,-1
 442 202 l 1,11,-1
 442 168 l 1,12,-1
 442 156 l 1,13,-1
 429 156 l 1,14,-1
 394 156 l 1,15,-1
 394 121 l 1,16,-1
 394 108 l 1,17,-1
 382 108 l 1,18,-1
 218 108 l 1,19,-1
 206 108 l 1,20,-1
 206 121 l 1,21,-1
 206 156 l 1,22,-1
 171 156 l 1,23,-1
 158 156 l 1,24,-1
 158 168 l 1,25,-1
 158 202 l 1,26,-1
 125 202 l 1,27,-1
 112 202 l 1,28,-1
 112 214 l 1,29,-1
 112 578 l 1,30,-1
 112 590 l 1,31,-1
 125 590 l 1,32,-1
 158 590 l 1,33,-1
 158 622 l 1,34,-1
 158 634 l 1,35,-1
 171 634 l 1,36,-1
 206 634 l 1,37,-1
 206 668 l 1,38,-1
 206 680 l 1,39,-1
 218 680 l 1,40,-1
 382 680 l 1,41,-1
 394 680 l 1,42,-1
 394 668 l 1,43,-1
 394 634 l 1,44,-1
 429 634 l 1,45,-1
 442 634 l 1,46,-1
 442 622 l 1,47,-1
 442 590 l 1,48,-1
 475 590 l 1,49,-1
 488 590 l 1,50,-1
 488 578 l 1,51,-1
 488 532 l 1,52,-1
 488 520 l 1,53,-1
 475 520 l 1,54,-1
 429 520 l 1,55,-1
 416 520 l 1,56,-1
 416 532 l 1,57,-1
 416 566 l 1,58,-1
 382 566 l 1,59,-1
 370 566 l 1,60,-1
 370 578 l 1,61,-1
 370 610 l 1,62,-1
 230 610 l 1,63,-1
 230 578 l 1,64,-1
 230 566 l 1,65,-1
 218 566 l 1,66,-1
 184 566 l 1,67,-1
 184 226 l 1,68,-1
 218 226 l 1,69,-1
 230 226 l 1,70,-1
 230 214 l 1,71,-1
 230 180 l 1,72,-1
 370 180 l 1,73,-1
 370 214 l 1,74,-1
 370 226 l 1,75,-1
 382 226 l 1,0,-1
EndSplineSet
Validated: 1
EndChar

StartChar: D
Encoding: 68 68 38
Width: 600
Flags: W
LayerCount: 2
Fore
SplineSet
370 574 m 1,0,-1
 370 587 l 1,1,-1
 370 620 l 1,2,-1
 184 620 l 1,3,-1
 184 180 l 1,4,-1
 370 180 l 1,5,-1
 370 214 l 1,6,-1
 370 226 l 1,7,-1
 382 226 l 1,8,-1
 416 226 l 1,9,-1
 416 574 l 1,10,-1
 382 574 l 1,11,-1
 370 574 l 1,0,-1
112 96 m 1,12,-1
 112 108 l 1,13,-1
 112 668 l 1,14,-1
 112 680 l 1,15,-1
 125 680 l 1,16,-1
 382 680 l 1,17,-1
 394 680 l 1,18,-1
 394 668 l 1,19,-1
 394 633 l 1,20,-1
 429 633 l 1,21,-1
 442 633 l 1,22,-1
 442 620 l 1,23,-1
 442 587 l 1,24,-1
 475 587 l 1,25,-1
 488 587 l 1,26,-1
 488 574 l 1,27,-1
 488 202 l 1,28,-1
 488 189 l 1,29,-1
 475 189 l 1,30,-1
 442 189 l 1,31,-1
 442 156 l 1,32,-1
 442 143 l 1,33,-1
 429 143 l 1,34,-1
 394 143 l 1,35,-1
 394 108 l 1,36,-1
 394 96 l 1,37,-1
 382 96 l 1,38,-1
 125 96 l 1,39,-1
 112 96 l 1,12,-1
EndSplineSet
Validated: 1
EndChar

StartChar: E
Encoding: 69 69 39
Width: 575
Flags: W
LayerCount: 2
Fore
SplineSet
136 108 m 1,0,-1
 136 121 l 1,1,-1
 136 668 l 1,2,-1
 136 680 l 1,3,-1
 148 680 l 1,4,-1
 427 680 l 1,5,-1
 440 680 l 1,6,-1
 440 668 l 1,7,-1
 440 620 l 1,8,-1
 440 608 l 1,9,-1
 427 608 l 1,10,-1
 206 608 l 1,11,-1
 206 458 l 1,12,-1
 380 458 l 1,13,-1
 392 458 l 1,14,-1
 392 446 l 1,15,-1
 392 400 l 1,16,-1
 392 388 l 1,17,-1
 380 388 l 1,18,-1
 206 388 l 1,19,-1
 206 180 l 1,20,-1
 427 180 l 1,21,-1
 440 180 l 1,22,-1
 440 168 l 1,23,-1
 440 121 l 1,24,-1
 440 108 l 1,25,-1
 427 108 l 1,26,-1
 148 108 l 1,27,-1
 136 108 l 1,0,-1
EndSplineSet
Validated: 1
EndChar

StartChar: F
Encoding: 70 70 40
Width: 575
Flags: W
LayerCount: 2
Fore
SplineSet
136 108 m 1,0,-1
 136 121 l 1,1,-1
 136 668 l 1,2,-1
 136 680 l 1,3,-1
 148 680 l 1,4,-1
 427 680 l 1,5,-1
 440 680 l 1,6,-1
 440 668 l 1,7,-1
 440 620 l 1,8,-1
 440 608 l 1,9,-1
 427 608 l 1,10,-1
 206 608 l 1,11,-1
 206 458 l 1,12,-1
 380 458 l 1,13,-1
 392 458 l 1,14,-1
 392 446 l 1,15,-1
 392 400 l 1,16,-1
 392 388 l 1,17,-1
 380 388 l 1,18,-1
 206 388 l 1,19,-1
 206 121 l 1,20,-1
 206 108 l 1,21,-1
 194 108 l 1,22,-1
 148 108 l 1,23,-1
 136 108 l 1,0,-1
EndSplineSet
Validated: 1
EndChar

StartChar: G
Encoding: 71 71 41
Width: 600
Flags: W
LayerCount: 2
Fore
SplineSet
442 628 m 1,0,-1
 442 595 l 1,1,-1
 475 595 l 1,2,-1
 488 595 l 1,3,-1
 488 584 l 1,4,-1
 488 539 l 1,5,-1
 488 528 l 1,6,-1
 475 528 l 1,7,-1
 429 528 l 1,8,-1
 416 528 l 1,9,-1
 416 539 l 1,10,-1
 416 572 l 1,11,-1
 382 572 l 1,12,-1
 370 572 l 1,13,-1
 370 584 l 1,14,-1
 370 617 l 1,15,-1
 230 617 l 1,16,-1
 230 606 l 2,17,18
 230 599 230 599 230 596 c 128,-1,19
 230 593 230 593 228.5 588 c 128,-1,20
 227 583 227 583 224 579 c 0,21,22
 217 572 217 572 196 570 c 2,23,-1
 184 568 l 1,24,-1
 184 226 l 1,25,-1
 218 226 l 1,26,-1
 230 226 l 1,27,-1
 230 214 l 1,28,-1
 230 180 l 1,29,-1
 263 180 l 2,30,31
 318 180 318 180 348 183 c 2,32,-1
 370 186 l 1,33,-1
 370 198 l 2,34,35
 370 200 370 200 369.5 203.5 c 128,-1,36
 369 207 369 207 369 208.5 c 128,-1,37
 369 210 369 210 369.5 213 c 128,-1,38
 370 216 370 216 371 218 c 128,-1,39
 372 220 372 220 373.5 222.5 c 128,-1,40
 375 225 375 225 377 227 c 0,41,42
 383 232 383 232 406 232 c 2,43,-1
 416 232 l 1,44,-1
 416 394 l 1,45,-1
 329 394 l 1,46,-1
 314 394 l 1,47,-1
 314 407 l 1,48,-1
 314 453 l 1,49,-1
 314 466 l 1,50,-1
 329 466 l 1,51,-1
 475 466 l 1,52,-1
 488 466 l 1,53,-1
 488 453 l 1,54,-1
 488 220 l 1,55,-1
 488 208 l 1,56,-1
 475 208 l 1,57,-1
 442 208 l 1,58,-1
 442 173 l 1,59,-1
 442 160 l 1,60,-1
 429 160 l 1,61,-1
 406 160 l 2,62,63
 403 160 403 160 399.5 160 c 128,-1,64
 396 160 396 160 395 160 c 0,65,66
 395 158 395 158 394.5 156 c 128,-1,67
 394 154 394 154 394 152 c 0,68,69
 394 132 394 132 389 124 c 0,70,71
 381 114 381 114 362 111 c 0,72,73
 338 109 338 109 285 108 c 0,74,75
 277 108 277 108 273 108 c 2,76,-1
 218 108 l 1,77,-1
 206 108 l 1,78,-1
 206 121 l 1,79,-1
 206 156 l 1,80,-1
 171 156 l 1,81,-1
 158 156 l 1,82,-1
 158 168 l 1,83,-1
 158 202 l 1,84,-1
 125 202 l 1,85,-1
 112 202 l 1,86,-1
 112 214 l 1,87,-1
 112 580 l 1,88,-1
 112 592 l 1,89,-1
 125 592 l 1,90,-1
 158 592 l 1,91,-1
 158 629 l 1,92,-1
 158 641 l 1,93,-1
 171 641 l 1,94,-1
 206 641 l 1,95,-1
 206 672 l 1,96,-1
 206 685 l 1,97,-1
 218 685 l 1,98,-1
 382 685 l 1,99,-1
 394 685 l 1,100,-1
 394 672 l 1,101,-1
 394 640 l 1,102,-1
 429 640 l 1,103,-1
 442 640 l 1,104,-1
 442 628 l 1,0,-1
EndSplineSet
Validated: 1025
EndChar

StartChar: H
Encoding: 72 72 42
Width: 600
Flags: W
LayerCount: 2
Fore
SplineSet
112 114 m 1,0,-1
 112 127 l 1,1,-1
 112 672 l 1,2,-1
 112 685 l 1,3,-1
 125 685 l 1,4,-1
 171 685 l 1,5,-1
 184 685 l 1,6,-1
 184 672 l 1,7,-1
 184 466 l 1,8,-1
 416 466 l 1,9,-1
 416 672 l 1,10,-1
 416 685 l 1,11,-1
 429 685 l 1,12,-1
 475 685 l 1,13,-1
 488 685 l 1,14,-1
 488 672 l 1,15,-1
 488 127 l 1,16,-1
 488 114 l 1,17,-1
 475 114 l 1,18,-1
 429 114 l 1,19,-1
 416 114 l 1,20,-1
 416 127 l 1,21,-1
 416 394 l 1,22,-1
 184 394 l 1,23,-1
 184 127 l 1,24,-1
 184 114 l 1,25,-1
 171 114 l 1,26,-1
 125 114 l 1,27,-1
 112 114 l 1,0,-1
EndSplineSet
Validated: 1
EndChar

StartChar: I
Encoding: 73 73 43
Width: 575
Flags: W
LayerCount: 2
Fore
SplineSet
158 614 m 1,0,-1
 158 626 l 1,1,-1
 158 672 l 1,2,-1
 158 685 l 1,3,-1
 171 685 l 1,4,-1
 404 685 l 1,5,-1
 416 685 l 1,6,-1
 416 672 l 1,7,-1
 416 626 l 1,8,-1
 416 614 l 1,9,-1
 404 614 l 1,10,-1
 324 614 l 1,11,-1
 324 173 l 1,12,-1
 404 173 l 1,13,-1
 416 173 l 1,14,-1
 416 160 l 1,15,-1
 416 114 l 1,16,-1
 416 102 l 1,17,-1
 404 102 l 1,18,-1
 171 102 l 1,19,-1
 158 102 l 1,20,-1
 158 114 l 1,21,-1
 158 160 l 1,22,-1
 158 173 l 1,23,-1
 171 173 l 1,24,-1
 252 173 l 1,25,-1
 252 614 l 1,26,-1
 171 614 l 1,27,-1
 158 614 l 1,0,-1
EndSplineSet
Validated: 1
EndChar

StartChar: J
Encoding: 74 74 44
Width: 600
Flags: W
LayerCount: 2
Fore
SplineSet
206 602 m 1,0,-1
 206 614 l 1,1,-1
 206 662 l 1,2,-1
 206 674 l 1,3,-1
 218 674 l 1,4,-1
 475 674 l 1,5,-1
 488 674 l 1,6,-1
 488 662 l 1,7,-1
 488 614 l 1,8,-1
 488 602 l 1,9,-1
 475 602 l 1,10,-1
 394 602 l 1,11,-1
 394 150 l 1,12,-1
 394 137 l 1,13,-1
 382 137 l 1,14,-1
 345 137 l 1,15,-1
 345 102 l 1,16,-1
 345 90 l 1,17,-1
 329 90 l 1,18,-1
 171 90 l 1,19,-1
 158 90 l 1,20,-1
 158 102 l 1,21,-1
 158 137 l 1,22,-1
 125 137 l 1,23,-1
 112 137 l 1,24,-1
 112 150 l 1,25,-1
 112 196 l 1,26,-1
 112 208 l 1,27,-1
 125 208 l 1,28,-1
 171 208 l 1,29,-1
 184 208 l 1,30,-1
 184 196 l 1,31,-1
 184 162 l 1,32,-1
 314 162 l 1,33,-1
 314 602 l 1,34,-1
 218 602 l 1,35,-1
 206 602 l 1,0,-1
EndSplineSet
Validated: 1
EndChar

StartChar: K
Encoding: 75 75 45
Width: 600
Flags: W
LayerCount: 2
Fore
SplineSet
112 108 m 1,0,-1
 112 121 l 1,1,-1
 112 668 l 1,2,-1
 112 680 l 1,3,-1
 125 680 l 1,4,-1
 171 680 l 1,5,-1
 184 680 l 1,6,-1
 184 668 l 1,7,-1
 184 458 l 1,8,-1
 206 458 l 1,9,-1
 206 494 l 1,10,-1
 206 506 l 1,11,-1
 218 506 l 1,12,-1
 255 506 l 1,13,-1
 255 538 l 1,14,-1
 255 549 l 1,15,-1
 271 549 l 1,16,-1
 314 549 l 1,17,-1
 314 582 l 1,18,-1
 314 593 l 1,19,-1
 329 593 l 1,20,-1
 370 593 l 1,21,-1
 370 624 l 1,22,-1
 370 636 l 1,23,-1
 382 636 l 1,24,-1
 416 636 l 1,25,-1
 416 668 l 1,26,-1
 416 680 l 1,27,-1
 429 680 l 1,28,-1
 475 680 l 1,29,-1
 488 680 l 1,30,-1
 488 668 l 1,31,-1
 488 624 l 1,32,-1
 488 612 l 1,33,-1
 475 612 l 1,34,-1
 442 612 l 1,35,-1
 442 581 l 1,36,-1
 442 569 l 1,37,-1
 429 569 l 1,38,-1
 394 569 l 1,39,-1
 394 537 l 1,40,-1
 394 525 l 1,41,-1
 382 525 l 1,42,-1
 345 525 l 1,43,-1
 345 493 l 1,44,-1
 345 482 l 1,45,-1
 329 482 l 1,46,-1
 286 482 l 1,47,-1
 286 446 l 1,48,-1
 286 434 l 1,49,-1
 271 434 l 1,50,-1
 230 434 l 1,51,-1
 230 366 l 1,52,-1
 271 366 l 1,53,-1
 286 366 l 1,54,-1
 286 353 l 1,55,-1
 286 320 l 1,56,-1
 329 320 l 1,57,-1
 345 320 l 1,58,-1
 345 307 l 1,59,-1
 345 274 l 1,60,-1
 382 274 l 1,61,-1
 394 274 l 1,62,-1
 394 261 l 1,63,-1
 394 226 l 1,64,-1
 429 226 l 1,65,-1
 442 226 l 1,66,-1
 442 214 l 1,67,-1
 442 180 l 1,68,-1
 475 180 l 1,69,-1
 488 180 l 1,70,-1
 488 168 l 1,71,-1
 488 121 l 1,72,-1
 488 108 l 1,73,-1
 475 108 l 1,74,-1
 429 108 l 1,75,-1
 416 108 l 1,76,-1
 416 121 l 1,77,-1
 416 156 l 1,78,-1
 382 156 l 1,79,-1
 370 156 l 1,80,-1
 370 168 l 1,81,-1
 370 202 l 1,82,-1
 329 202 l 1,83,-1
 314 202 l 1,84,-1
 314 214 l 1,85,-1
 314 248 l 1,86,-1
 271 248 l 1,87,-1
 255 248 l 1,88,-1
 255 261 l 1,89,-1
 255 294 l 1,90,-1
 218 294 l 1,91,-1
 206 294 l 1,92,-1
 206 307 l 1,93,-1
 206 340 l 1,94,-1
 184 340 l 1,95,-1
 184 121 l 1,96,-1
 184 108 l 1,97,-1
 171 108 l 1,98,-1
 125 108 l 1,99,-1
 112 108 l 1,0,-1
EndSplineSet
Validated: 1025
EndChar

StartChar: L
Encoding: 76 76 46
Width: 600
Flags: W
LayerCount: 2
Fore
SplineSet
112 96 m 1,0,-1
 112 108 l 1,1,-1
 112 668 l 1,2,-1
 112 680 l 1,3,-1
 125 680 l 1,4,-1
 171 680 l 1,5,-1
 184 680 l 1,6,-1
 184 668 l 1,7,-1
 184 168 l 1,8,-1
 475 168 l 1,9,-1
 488 168 l 1,10,-1
 488 156 l 1,11,-1
 488 108 l 1,12,-1
 488 96 l 1,13,-1
 475 96 l 1,14,-1
 125 96 l 1,15,-1
 112 96 l 1,0,-1
EndSplineSet
Validated: 1
EndChar

StartChar: M
Encoding: 77 77 47
Width: 600
Flags: W
LayerCount: 2
Fore
SplineSet
124 633 m 1,0,-1
 158 633 l 1,1,-1
 158 668 l 1,2,-1
 158 680 l 1,3,-1
 171 680 l 1,4,-1
 221 680 l 1,5,-1
 235 680 l 1,6,-1
 235 668 l 1,7,-1
 235 633 l 1,8,-1
 275 633 l 1,9,-1
 289 633 l 1,10,-1
 289 620 l 1,11,-1
 289 587 l 1,12,-1
 312 587 l 1,13,-1
 312 620 l 1,14,-1
 312 633 l 1,15,-1
 326 633 l 1,16,-1
 365 633 l 1,17,-1
 365 668 l 1,18,-1
 365 680 l 1,19,-1
 379 680 l 1,20,-1
 429 680 l 1,21,-1
 442 680 l 1,22,-1
 442 668 l 1,23,-1
 442 633 l 1,24,-1
 476 633 l 1,25,-1
 488 633 l 1,26,-1
 488 620 l 1,27,-1
 488 587 l 1,28,-1
 522 587 l 1,29,-1
 534 587 l 1,30,-1
 534 574 l 1,31,-1
 534 108 l 1,32,-1
 534 96 l 1,33,-1
 522 96 l 1,34,-1
 476 96 l 1,35,-1
 464 96 l 1,36,-1
 464 108 l 1,37,-1
 464 562 l 1,38,-1
 429 562 l 1,39,-1
 416 562 l 1,40,-1
 416 574 l 1,41,-1
 416 608 l 1,42,-1
 393 608 l 1,43,-1
 393 574 l 1,44,-1
 393 562 l 1,45,-1
 379 562 l 1,46,-1
 341 562 l 1,47,-1
 341 388 l 1,48,-1
 341 375 l 1,49,-1
 326 375 l 1,50,-1
 275 375 l 1,51,-1
 261 375 l 1,52,-1
 261 388 l 1,53,-1
 261 562 l 1,54,-1
 221 562 l 1,55,-1
 207 562 l 1,56,-1
 207 574 l 1,57,-1
 207 608 l 1,58,-1
 184 608 l 1,59,-1
 184 574 l 1,60,-1
 184 562 l 1,61,-1
 171 562 l 1,62,-1
 136 562 l 1,63,-1
 136 108 l 1,64,-1
 136 96 l 1,65,-1
 124 96 l 1,66,-1
 78 96 l 1,67,-1
 66 96 l 1,68,-1
 66 108 l 1,69,-1
 66 574 l 1,70,-1
 66 587 l 1,71,-1
 78 587 l 1,72,-1
 112 587 l 1,73,-1
 112 620 l 1,74,-1
 112 633 l 1,75,-1
 124 633 l 1,0,-1
EndSplineSet
Validated: 1
EndChar

StartChar: N
Encoding: 78 78 48
Width: 600
Flags: W
LayerCount: 2
Fore
SplineSet
88 108 m 1,0,-1
 88 121 l 1,1,-1
 88 668 l 1,2,-1
 88 680 l 1,3,-1
 101 680 l 1,4,-1
 194 680 l 1,5,-1
 206 680 l 1,6,-1
 206 668 l 1,7,-1
 206 593 l 1,8,-1
 245 593 l 1,9,-1
 259 593 l 1,10,-1
 259 582 l 1,11,-1
 259 506 l 1,12,-1
 301 506 l 1,13,-1
 315 506 l 1,14,-1
 315 494 l 1,15,-1
 315 412 l 1,16,-1
 354 412 l 1,17,-1
 369 412 l 1,18,-1
 369 400 l 1,19,-1
 369 320 l 1,20,-1
 406 320 l 1,21,-1
 418 320 l 1,22,-1
 418 307 l 1,23,-1
 418 226 l 1,24,-1
 440 226 l 1,25,-1
 440 668 l 1,26,-1
 440 680 l 1,27,-1
 452 680 l 1,28,-1
 499 680 l 1,29,-1
 512 680 l 1,30,-1
 512 668 l 1,31,-1
 512 121 l 1,32,-1
 512 108 l 1,33,-1
 499 108 l 1,34,-1
 406 108 l 1,35,-1
 394 108 l 1,36,-1
 394 121 l 1,37,-1
 394 202 l 1,38,-1
 354 202 l 1,39,-1
 340 202 l 1,40,-1
 340 214 l 1,41,-1
 340 294 l 1,42,-1
 301 294 l 1,43,-1
 286 294 l 1,44,-1
 286 307 l 1,45,-1
 286 388 l 1,46,-1
 245 388 l 1,47,-1
 230 388 l 1,48,-1
 230 400 l 1,49,-1
 230 482 l 1,50,-1
 194 482 l 1,51,-1
 182 482 l 1,52,-1
 182 493 l 1,53,-1
 182 569 l 1,54,-1
 160 569 l 1,55,-1
 160 121 l 1,56,-1
 160 108 l 1,57,-1
 147 108 l 1,58,-1
 101 108 l 1,59,-1
 88 108 l 1,0,-1
EndSplineSet
Validated: 1
EndChar

StartChar: O
Encoding: 79 79 49
Width: 600
Flags: W
LayerCount: 2
Fore
SplineSet
416 574 m 1,0,-1
 416 587 l 1,1,-1
 416 620 l 1,2,-1
 184 620 l 1,3,-1
 184 587 l 1,4,-1
 184 574 l 1,5,-1
 171 574 l 1,6,-1
 136 574 l 1,7,-1
 136 226 l 1,8,-1
 171 226 l 1,9,-1
 184 226 l 1,10,-1
 184 214 l 1,11,-1
 184 180 l 1,12,-1
 416 180 l 1,13,-1
 416 214 l 1,14,-1
 416 226 l 1,15,-1
 429 226 l 1,16,-1
 464 226 l 1,17,-1
 464 574 l 1,18,-1
 429 574 l 1,19,-1
 416 574 l 1,0,-1
78 587 m 1,20,-1
 112 587 l 1,21,-1
 112 620 l 1,22,-1
 112 633 l 1,23,-1
 124 633 l 1,24,-1
 158 633 l 1,25,-1
 158 668 l 1,26,-1
 158 680 l 1,27,-1
 171 680 l 1,28,-1
 429 680 l 1,29,-1
 442 680 l 1,30,-1
 442 668 l 1,31,-1
 442 633 l 1,32,-1
 476 633 l 1,33,-1
 488 633 l 1,34,-1
 488 620 l 1,35,-1
 488 587 l 1,36,-1
 522 587 l 1,37,-1
 534 587 l 1,38,-1
 534 574 l 1,39,-1
 534 202 l 1,40,-1
 534 189 l 1,41,-1
 522 189 l 1,42,-1
 488 189 l 1,43,-1
 488 156 l 1,44,-1
 488 143 l 1,45,-1
 476 143 l 1,46,-1
 442 143 l 1,47,-1
 442 108 l 1,48,-1
 442 96 l 1,49,-1
 429 96 l 1,50,-1
 171 96 l 1,51,-1
 158 96 l 1,52,-1
 158 108 l 1,53,-1
 158 143 l 1,54,-1
 124 143 l 1,55,-1
 112 143 l 1,56,-1
 112 156 l 1,57,-1
 112 189 l 1,58,-1
 78 189 l 1,59,-1
 66 189 l 1,60,-1
 66 202 l 1,61,-1
 66 574 l 1,62,-1
 66 587 l 1,63,-1
 78 587 l 1,20,-1
EndSplineSet
Validated: 1
EndChar

StartChar: P
Encoding: 80 80 50
Width: 600
Flags: W
LayerCount: 2
Fore
SplineSet
370 574 m 1,0,-1
 370 587 l 1,1,-1
 370 620 l 1,2,-1
 184 620 l 1,3,-1
 184 458 l 1,4,-1
 370 458 l 1,5,-1
 370 494 l 1,6,-1
 370 506 l 1,7,-1
 382 506 l 1,8,-1
 416 506 l 1,9,-1
 416 574 l 1,10,-1
 382 574 l 1,11,-1
 370 574 l 1,0,-1
112 108 m 1,12,-1
 112 121 l 1,13,-1
 112 668 l 1,14,-1
 112 680 l 1,15,-1
 125 680 l 1,16,-1
 382 680 l 1,17,-1
 394 680 l 1,18,-1
 394 668 l 1,19,-1
 394 636 l 1,20,-1
 429 636 l 1,21,-1
 442 636 l 1,22,-1
 442 624 l 1,23,-1
 442 593 l 1,24,-1
 475 593 l 1,25,-1
 488 593 l 1,26,-1
 488 581 l 1,27,-1
 488 493 l 1,28,-1
 488 482 l 1,29,-1
 475 482 l 1,30,-1
 442 482 l 1,31,-1
 442 446 l 1,32,-1
 442 434 l 1,33,-1
 429 434 l 1,34,-1
 394 434 l 1,35,-1
 394 400 l 1,36,-1
 394 388 l 1,37,-1
 382 388 l 1,38,-1
 184 388 l 1,39,-1
 184 121 l 1,40,-1
 184 108 l 1,41,-1
 171 108 l 1,42,-1
 125 108 l 1,43,-1
 112 108 l 1,12,-1
EndSplineSet
Validated: 1
EndChar

StartChar: Q
Encoding: 81 81 51
Width: 600
Flags: W
LayerCount: 2
Fore
SplineSet
54 592 m 1,0,-1
 88 592 l 1,1,-1
 88 626 l 1,2,-1
 88 639 l 1,3,-1
 100 639 l 1,4,-1
 135 639 l 1,5,-1
 135 672 l 1,6,-1
 135 685 l 1,7,-1
 148 685 l 1,8,-1
 401 685 l 1,9,-1
 415 685 l 1,10,-1
 415 672 l 1,11,-1
 415 639 l 1,12,-1
 452 639 l 1,13,-1
 464 639 l 1,14,-1
 464 626 l 1,15,-1
 464 592 l 1,16,-1
 498 592 l 1,17,-1
 510 592 l 1,18,-1
 510 580 l 1,19,-1
 510 208 l 1,20,-1
 510 195 l 1,21,-1
 498 195 l 1,22,-1
 464 195 l 1,23,-1
 464 173 l 1,24,-1
 546 173 l 1,25,-1
 558 173 l 1,26,-1
 558 160 l 1,27,-1
 558 114 l 1,28,-1
 558 102 l 1,29,-1
 546 102 l 1,30,-1
 452 102 l 1,31,-1
 439 102 l 1,32,-1
 439 114 l 1,33,-1
 439 148 l 1,34,-1
 415 148 l 1,35,-1
 415 114 l 1,36,-1
 415 102 l 1,37,-1
 401 102 l 1,38,-1
 148 102 l 1,39,-1
 135 102 l 1,40,-1
 135 114 l 1,41,-1
 135 148 l 1,42,-1
 100 148 l 1,43,-1
 88 148 l 1,44,-1
 88 160 l 1,45,-1
 88 195 l 1,46,-1
 54 195 l 1,47,-1
 42 195 l 1,48,-1
 42 208 l 1,49,-1
 42 580 l 1,50,-1
 42 592 l 1,51,-1
 54 592 l 1,0,-1
148 580 m 1,52,-1
 113 580 l 1,53,-1
 113 232 l 1,54,-1
 148 232 l 1,55,-1
 160 232 l 1,56,-1
 160 220 l 1,57,-1
 160 186 l 1,58,-1
 388 186 l 1,59,-1
 388 220 l 1,60,-1
 388 232 l 1,61,-1
 401 232 l 1,62,-1
 439 232 l 1,63,-1
 439 580 l 1,64,-1
 401 580 l 1,65,-1
 388 580 l 1,66,-1
 388 592 l 1,67,-1
 388 626 l 1,68,-1
 160 626 l 1,69,-1
 160 592 l 1,70,-1
 160 580 l 1,71,-1
 148 580 l 1,52,-1
EndSplineSet
Validated: 1
EndChar

StartChar: R
Encoding: 82 82 52
Width: 600
Flags: W
LayerCount: 2
Fore
SplineSet
394 672 m 1,0,-1
 394 641 l 1,1,-1
 429 641 l 1,2,-1
 442 641 l 1,3,-1
 442 629 l 1,4,-1
 442 597 l 1,5,-1
 475 597 l 1,6,-1
 488 597 l 1,7,-1
 488 585 l 1,8,-1
 488 499 l 1,9,-1
 488 488 l 1,10,-1
 475 488 l 1,11,-1
 442 488 l 1,12,-1
 442 453 l 1,13,-1
 442 440 l 1,14,-1
 429 440 l 1,15,-1
 394 440 l 1,16,-1
 394 420 l 1,17,-1
 429 420 l 1,18,-1
 442 420 l 1,19,-1
 442 407 l 1,20,-1
 442 372 l 1,21,-1
 475 372 l 1,22,-1
 488 372 l 1,23,-1
 488 359 l 1,24,-1
 488 127 l 1,25,-1
 488 114 l 1,26,-1
 475 114 l 1,27,-1
 429 114 l 1,28,-1
 416 114 l 1,29,-1
 416 127 l 1,30,-1
 416 346 l 1,31,-1
 382 346 l 1,32,-1
 370 346 l 1,33,-1
 370 359 l 1,34,-1
 370 394 l 1,35,-1
 184 394 l 1,36,-1
 184 127 l 1,37,-1
 184 114 l 1,38,-1
 171 114 l 1,39,-1
 125 114 l 1,40,-1
 112 114 l 1,41,-1
 112 127 l 1,42,-1
 112 672 l 1,43,-1
 112 685 l 1,44,-1
 125 685 l 1,45,-1
 382 685 l 1,46,-1
 394 685 l 1,47,-1
 394 672 l 1,0,-1
370 592 m 1,48,-1
 370 626 l 1,49,-1
 184 626 l 1,50,-1
 184 466 l 1,51,-1
 370 466 l 1,52,-1
 370 500 l 1,53,-1
 370 512 l 1,54,-1
 382 512 l 1,55,-1
 416 512 l 1,56,-1
 416 580 l 1,57,-1
 382 580 l 1,58,-1
 370 580 l 1,59,-1
 370 592 l 1,48,-1
EndSplineSet
Validated: 1
EndChar

StartChar: S
Encoding: 83 83 53
Width: 600
Flags: W
LayerCount: 2
Fore
SplineSet
490 629 m 1,0,-1
 490 597 l 1,1,-1
 523 597 l 1,2,-1
 536 597 l 1,3,-1
 536 585 l 1,4,-1
 536 542 l 1,5,-1
 536 530 l 1,6,-1
 523 530 l 1,7,-1
 477 530 l 1,8,-1
 464 530 l 1,9,-1
 464 542 l 1,10,-1
 464 574 l 1,11,-1
 430 574 l 1,12,-1
 418 574 l 1,13,-1
 418 585 l 1,14,-1
 418 617 l 1,15,-1
 182 617 l 1,16,-1
 182 585 l 1,17,-1
 182 574 l 1,18,-1
 170 574 l 1,19,-1
 136 574 l 1,20,-1
 136 510 l 1,21,-1
 170 510 l 1,22,-1
 182 510 l 1,23,-1
 182 498 l 1,24,-1
 182 464 l 1,25,-1
 430 464 l 1,26,-1
 442 464 l 1,27,-1
 442 451 l 1,28,-1
 442 416 l 1,29,-1
 477 416 l 1,30,-1
 490 416 l 1,31,-1
 490 403 l 1,32,-1
 490 370 l 1,33,-1
 523 370 l 1,34,-1
 536 370 l 1,35,-1
 536 357 l 1,36,-1
 536 216 l 1,37,-1
 536 204 l 1,38,-1
 523 204 l 1,39,-1
 490 204 l 1,40,-1
 490 170 l 1,41,-1
 490 158 l 1,42,-1
 477 158 l 1,43,-1
 442 158 l 1,44,-1
 442 123 l 1,45,-1
 442 110 l 1,46,-1
 430 110 l 1,47,-1
 170 110 l 1,48,-1
 158 110 l 1,49,-1
 158 123 l 1,50,-1
 158 158 l 1,51,-1
 124 158 l 1,52,-1
 112 158 l 1,53,-1
 112 170 l 1,54,-1
 112 204 l 1,55,-1
 77 204 l 1,56,-1
 64 204 l 1,57,-1
 64 216 l 1,58,-1
 64 263 l 1,59,-1
 64 276 l 1,60,-1
 77 276 l 1,61,-1
 124 276 l 1,62,-1
 136 276 l 1,63,-1
 136 263 l 1,64,-1
 136 228 l 1,65,-1
 170 228 l 1,66,-1
 182 228 l 1,67,-1
 182 216 l 1,68,-1
 182 182 l 1,69,-1
 418 182 l 1,70,-1
 418 216 l 1,71,-1
 418 228 l 1,72,-1
 430 228 l 1,73,-1
 464 228 l 1,74,-1
 464 344 l 1,75,-1
 430 344 l 1,76,-1
 418 344 l 1,77,-1
 418 357 l 1,78,-1
 418 390 l 1,79,-1
 170 390 l 1,80,-1
 158 390 l 1,81,-1
 158 403 l 1,82,-1
 158 438 l 1,83,-1
 124 438 l 1,84,-1
 112 438 l 1,85,-1
 112 451 l 1,86,-1
 112 486 l 1,87,-1
 77 486 l 1,88,-1
 64 486 l 1,89,-1
 64 497 l 1,90,-1
 64 584 l 1,91,-1
 64 596 l 1,92,-1
 77 596 l 1,93,-1
 112 596 l 1,94,-1
 112 628 l 1,95,-1
 112 640 l 1,96,-1
 124 640 l 1,97,-1
 158 640 l 1,98,-1
 158 672 l 1,99,-1
 158 685 l 1,100,-1
 170 685 l 1,101,-1
 430 685 l 1,102,-1
 442 685 l 1,103,-1
 442 672 l 1,104,-1
 442 640 l 1,105,-1
 477 640 l 1,106,-1
 490 640 l 1,107,-1
 490 629 l 1,0,-1
EndSplineSet
Validated: 1025
EndChar

StartChar: T
Encoding: 84 84 54
Width: 600
Flags: W
LayerCount: 2
Fore
SplineSet
114 613 m 1,0,-1
 114 626 l 1,1,-1
 114 672 l 1,2,-1
 114 685 l 1,3,-1
 127 685 l 1,4,-1
 473 685 l 1,5,-1
 486 685 l 1,6,-1
 486 672 l 1,7,-1
 486 626 l 1,8,-1
 486 613 l 1,9,-1
 473 613 l 1,10,-1
 349 613 l 1,11,-1
 349 110 l 1,12,-1
 349 98 l 1,13,-1
 333 98 l 1,14,-1
 274 98 l 1,15,-1
 259 98 l 1,16,-1
 259 110 l 1,17,-1
 259 613 l 1,18,-1
 127 613 l 1,19,-1
 114 613 l 1,0,-1
EndSplineSet
Validated: 1
EndChar

StartChar: U
Encoding: 85 85 55
Width: 600
Flags: W
LayerCount: 2
Fore
SplineSet
112 98 m 1,0,-1
 112 110 l 1,1,-1
 112 672 l 1,2,-1
 112 685 l 1,3,-1
 124 685 l 1,4,-1
 171 685 l 1,5,-1
 184 685 l 1,6,-1
 184 672 l 1,7,-1
 184 170 l 1,8,-1
 416 170 l 1,9,-1
 416 672 l 1,10,-1
 416 685 l 1,11,-1
 429 685 l 1,12,-1
 476 685 l 1,13,-1
 488 685 l 1,14,-1
 488 672 l 1,15,-1
 488 110 l 1,16,-1
 488 98 l 1,17,-1
 476 98 l 1,18,-1
 124 98 l 1,19,-1
 112 98 l 1,0,-1
EndSplineSet
Validated: 1
EndChar

StartChar: V
Encoding: 86 86 56
Width: 600
Flags: W
LayerCount: 2
Fore
SplineSet
64 532 m 1,0,-1
 64 543 l 1,1,-1
 64 672 l 1,2,-1
 64 685 l 1,3,-1
 77 685 l 1,4,-1
 124 685 l 1,5,-1
 136 685 l 1,6,-1
 136 672 l 1,7,-1
 136 556 l 1,8,-1
 170 556 l 1,9,-1
 182 556 l 1,10,-1
 182 544 l 1,11,-1
 182 464 l 1,12,-1
 221 464 l 1,13,-1
 235 464 l 1,14,-1
 235 451 l 1,15,-1
 235 322 l 1,16,-1
 275 322 l 1,17,-1
 289 322 l 1,18,-1
 289 310 l 1,19,-1
 289 228 l 1,20,-1
 313 228 l 1,21,-1
 313 310 l 1,22,-1
 313 322 l 1,23,-1
 328 322 l 1,24,-1
 365 322 l 1,25,-1
 365 451 l 1,26,-1
 365 464 l 1,27,-1
 379 464 l 1,28,-1
 418 464 l 1,29,-1
 418 544 l 1,30,-1
 418 556 l 1,31,-1
 430 556 l 1,32,-1
 464 556 l 1,33,-1
 464 672 l 1,34,-1
 464 685 l 1,35,-1
 477 685 l 1,36,-1
 523 685 l 1,37,-1
 536 685 l 1,38,-1
 536 672 l 1,39,-1
 536 543 l 1,40,-1
 536 532 l 1,41,-1
 523 532 l 1,42,-1
 490 532 l 1,43,-1
 490 451 l 1,44,-1
 490 438 l 1,45,-1
 477 438 l 1,46,-1
 442 438 l 1,47,-1
 442 310 l 1,48,-1
 442 298 l 1,49,-1
 430 298 l 1,50,-1
 393 298 l 1,51,-1
 393 216 l 1,52,-1
 393 204 l 1,53,-1
 379 204 l 1,54,-1
 342 204 l 1,55,-1
 342 123 l 1,56,-1
 342 110 l 1,57,-1
 328 110 l 1,58,-1
 275 110 l 1,59,-1
 261 110 l 1,60,-1
 261 123 l 1,61,-1
 261 204 l 1,62,-1
 221 204 l 1,63,-1
 207 204 l 1,64,-1
 207 216 l 1,65,-1
 207 298 l 1,66,-1
 170 298 l 1,67,-1
 158 298 l 1,68,-1
 158 310 l 1,69,-1
 158 438 l 1,70,-1
 124 438 l 1,71,-1
 112 438 l 1,72,-1
 112 451 l 1,73,-1
 112 532 l 1,74,-1
 77 532 l 1,75,-1
 64 532 l 1,0,-1
EndSplineSet
Validated: 1
EndChar

StartChar: W
Encoding: 87 87 57
Width: 600
Flags: W
LayerCount: 2
Fore
SplineSet
64 145 m 1,0,-1
 64 158 l 1,1,-1
 64 672 l 1,2,-1
 64 685 l 1,3,-1
 77 685 l 1,4,-1
 124 685 l 1,5,-1
 136 685 l 1,6,-1
 136 672 l 1,7,-1
 136 170 l 1,8,-1
 207 170 l 1,9,-1
 207 204 l 1,10,-1
 207 216 l 1,11,-1
 221 216 l 1,12,-1
 261 216 l 1,13,-1
 261 390 l 1,14,-1
 261 403 l 1,15,-1
 275 403 l 1,16,-1
 328 403 l 1,17,-1
 342 403 l 1,18,-1
 342 390 l 1,19,-1
 342 216 l 1,20,-1
 379 216 l 1,21,-1
 393 216 l 1,22,-1
 393 204 l 1,23,-1
 393 170 l 1,24,-1
 464 170 l 1,25,-1
 464 672 l 1,26,-1
 464 685 l 1,27,-1
 477 685 l 1,28,-1
 523 685 l 1,29,-1
 536 685 l 1,30,-1
 536 672 l 1,31,-1
 536 158 l 1,32,-1
 536 145 l 1,33,-1
 523 145 l 1,34,-1
 490 145 l 1,35,-1
 490 110 l 1,36,-1
 490 98 l 1,37,-1
 477 98 l 1,38,-1
 379 98 l 1,39,-1
 365 98 l 1,40,-1
 365 110 l 1,41,-1
 365 145 l 1,42,-1
 328 145 l 1,43,-1
 313 145 l 1,44,-1
 313 158 l 1,45,-1
 313 191 l 1,46,-1
 289 191 l 1,47,-1
 289 158 l 1,48,-1
 289 145 l 1,49,-1
 275 145 l 1,50,-1
 235 145 l 1,51,-1
 235 110 l 1,52,-1
 235 98 l 1,53,-1
 221 98 l 1,54,-1
 124 98 l 1,55,-1
 112 98 l 1,56,-1
 112 110 l 1,57,-1
 112 145 l 1,58,-1
 77 145 l 1,59,-1
 64 145 l 1,0,-1
EndSplineSet
Validated: 1
EndChar

StartChar: X
Encoding: 88 88 58
Width: 600
Flags: W
LayerCount: 2
Fore
SplineSet
18 617 m 1,0,-1
 18 628 l 1,1,-1
 18 672 l 1,2,-1
 18 685 l 1,3,-1
 30 685 l 1,4,-1
 77 685 l 1,5,-1
 90 685 l 1,6,-1
 90 672 l 1,7,-1
 90 640 l 1,8,-1
 123 640 l 1,9,-1
 136 640 l 1,10,-1
 136 629 l 1,11,-1
 136 597 l 1,12,-1
 173 597 l 1,13,-1
 186 597 l 1,14,-1
 186 585 l 1,15,-1
 186 553 l 1,16,-1
 224 553 l 1,17,-1
 237 553 l 1,18,-1
 237 542 l 1,19,-1
 237 510 l 1,20,-1
 276 510 l 1,21,-1
 289 510 l 1,22,-1
 289 498 l 1,23,-1
 289 464 l 1,24,-1
 312 464 l 1,25,-1
 312 498 l 1,26,-1
 312 510 l 1,27,-1
 325 510 l 1,28,-1
 363 510 l 1,29,-1
 363 542 l 1,30,-1
 363 553 l 1,31,-1
 376 553 l 1,32,-1
 414 553 l 1,33,-1
 414 585 l 1,34,-1
 414 597 l 1,35,-1
 427 597 l 1,36,-1
 464 597 l 1,37,-1
 464 629 l 1,38,-1
 464 640 l 1,39,-1
 476 640 l 1,40,-1
 510 640 l 1,41,-1
 510 672 l 1,42,-1
 510 685 l 1,43,-1
 523 685 l 1,44,-1
 570 685 l 1,45,-1
 582 685 l 1,46,-1
 582 672 l 1,47,-1
 582 628 l 1,48,-1
 582 617 l 1,49,-1
 570 617 l 1,50,-1
 536 617 l 1,51,-1
 536 584 l 1,52,-1
 536 573 l 1,53,-1
 523 573 l 1,54,-1
 488 573 l 1,55,-1
 488 540 l 1,56,-1
 488 529 l 1,57,-1
 476 529 l 1,58,-1
 441 529 l 1,59,-1
 441 497 l 1,60,-1
 441 486 l 1,61,-1
 427 486 l 1,62,-1
 390 486 l 1,63,-1
 390 451 l 1,64,-1
 390 438 l 1,65,-1
 376 438 l 1,66,-1
 339 438 l 1,67,-1
 339 370 l 1,68,-1
 376 370 l 1,69,-1
 390 370 l 1,70,-1
 390 357 l 1,71,-1
 390 322 l 1,72,-1
 427 322 l 1,73,-1
 441 322 l 1,74,-1
 441 310 l 1,75,-1
 441 276 l 1,76,-1
 476 276 l 1,77,-1
 488 276 l 1,78,-1
 488 263 l 1,79,-1
 488 228 l 1,80,-1
 523 228 l 1,81,-1
 536 228 l 1,82,-1
 536 216 l 1,83,-1
 536 182 l 1,84,-1
 570 182 l 1,85,-1
 582 182 l 1,86,-1
 582 170 l 1,87,-1
 582 123 l 1,88,-1
 582 110 l 1,89,-1
 570 110 l 1,90,-1
 523 110 l 1,91,-1
 510 110 l 1,92,-1
 510 123 l 1,93,-1
 510 158 l 1,94,-1
 476 158 l 1,95,-1
 464 158 l 1,96,-1
 464 170 l 1,97,-1
 464 204 l 1,98,-1
 427 204 l 1,99,-1
 414 204 l 1,100,-1
 414 216 l 1,101,-1
 414 250 l 1,102,-1
 376 250 l 1,103,-1
 363 250 l 1,104,-1
 363 263 l 1,105,-1
 363 298 l 1,106,-1
 325 298 l 1,107,-1
 312 298 l 1,108,-1
 312 310 l 1,109,-1
 312 344 l 1,110,-1
 289 344 l 1,111,-1
 289 310 l 1,112,-1
 289 298 l 1,113,-1
 276 298 l 1,114,-1
 237 298 l 1,115,-1
 237 263 l 1,116,-1
 237 250 l 1,117,-1
 224 250 l 1,118,-1
 186 250 l 1,119,-1
 186 216 l 1,120,-1
 186 204 l 1,121,-1
 173 204 l 1,122,-1
 136 204 l 1,123,-1
 136 170 l 1,124,-1
 136 158 l 1,125,-1
 123 158 l 1,126,-1
 90 158 l 1,127,-1
 90 123 l 1,128,-1
 90 110 l 1,129,-1
 77 110 l 1,130,-1
 30 110 l 1,131,-1
 18 110 l 1,132,-1
 18 123 l 1,133,-1
 18 170 l 1,134,-1
 18 182 l 1,135,-1
 30 182 l 1,136,-1
 64 182 l 1,137,-1
 64 216 l 1,138,-1
 64 228 l 1,139,-1
 77 228 l 1,140,-1
 110 228 l 1,141,-1
 110 263 l 1,142,-1
 110 276 l 1,143,-1
 123 276 l 1,144,-1
 159 276 l 1,145,-1
 159 310 l 1,146,-1
 159 322 l 1,147,-1
 173 322 l 1,148,-1
 210 322 l 1,149,-1
 210 357 l 1,150,-1
 210 370 l 1,151,-1
 224 370 l 1,152,-1
 262 370 l 1,153,-1
 262 438 l 1,154,-1
 224 438 l 1,155,-1
 210 438 l 1,156,-1
 210 451 l 1,157,-1
 210 486 l 1,158,-1
 173 486 l 1,159,-1
 159 486 l 1,160,-1
 159 497 l 1,161,-1
 159 529 l 1,162,-1
 123 529 l 1,163,-1
 110 529 l 1,164,-1
 110 540 l 1,165,-1
 110 573 l 1,166,-1
 77 573 l 1,167,-1
 64 573 l 1,168,-1
 64 584 l 1,169,-1
 64 617 l 1,170,-1
 30 617 l 1,171,-1
 18 617 l 1,0,-1
EndSplineSet
Validated: 1025
EndChar

StartChar: Y
Encoding: 89 89 59
Width: 600
Flags: W
LayerCount: 2
Fore
SplineSet
112 438 m 1,0,-1
 112 450 l 1,1,-1
 112 672 l 1,2,-1
 112 685 l 1,3,-1
 124 685 l 1,4,-1
 171 685 l 1,5,-1
 184 685 l 1,6,-1
 184 672 l 1,7,-1
 184 464 l 1,8,-1
 217 464 l 1,9,-1
 230 464 l 1,10,-1
 230 451 l 1,11,-1
 230 416 l 1,12,-1
 370 416 l 1,13,-1
 370 451 l 1,14,-1
 370 464 l 1,15,-1
 383 464 l 1,16,-1
 416 464 l 1,17,-1
 416 672 l 1,18,-1
 416 685 l 1,19,-1
 429 685 l 1,20,-1
 476 685 l 1,21,-1
 488 685 l 1,22,-1
 488 672 l 1,23,-1
 488 450 l 1,24,-1
 488 438 l 1,25,-1
 476 438 l 1,26,-1
 442 438 l 1,27,-1
 442 403 l 1,28,-1
 442 390 l 1,29,-1
 429 390 l 1,30,-1
 396 390 l 1,31,-1
 396 357 l 1,32,-1
 396 344 l 1,33,-1
 383 344 l 1,34,-1
 344 344 l 1,35,-1
 344 123 l 1,36,-1
 344 110 l 1,37,-1
 329 110 l 1,38,-1
 271 110 l 1,39,-1
 256 110 l 1,40,-1
 256 123 l 1,41,-1
 256 344 l 1,42,-1
 217 344 l 1,43,-1
 204 344 l 1,44,-1
 204 357 l 1,45,-1
 204 390 l 1,46,-1
 171 390 l 1,47,-1
 158 390 l 1,48,-1
 158 403 l 1,49,-1
 158 438 l 1,50,-1
 124 438 l 1,51,-1
 112 438 l 1,0,-1
EndSplineSet
Validated: 1
EndChar

StartChar: Z
Encoding: 90 90 60
Width: 600
Flags: W
LayerCount: 2
Fore
SplineSet
41 619 m 1,0,-1
 41 632 l 1,1,-1
 41 678 l 1,2,-1
 41 690 l 1,3,-1
 54 690 l 1,4,-1
 546 690 l 1,5,-1
 559 690 l 1,6,-1
 559 678 l 1,7,-1
 559 589 l 1,8,-1
 559 577 l 1,9,-1
 546 577 l 1,10,-1
 511 577 l 1,11,-1
 511 545 l 1,12,-1
 511 533 l 1,13,-1
 498 533 l 1,14,-1
 465 533 l 1,15,-1
 465 500 l 1,16,-1
 465 488 l 1,17,-1
 452 488 l 1,18,-1
 416 488 l 1,19,-1
 416 456 l 1,20,-1
 416 444 l 1,21,-1
 402 444 l 1,22,-1
 364 444 l 1,23,-1
 364 410 l 1,24,-1
 364 398 l 1,25,-1
 351 398 l 1,26,-1
 314 398 l 1,27,-1
 314 362 l 1,28,-1
 314 350 l 1,29,-1
 300 350 l 1,30,-1
 262 350 l 1,31,-1
 262 316 l 1,32,-1
 262 304 l 1,33,-1
 248 304 l 1,34,-1
 210 304 l 1,35,-1
 210 269 l 1,36,-1
 210 256 l 1,37,-1
 196 256 l 1,38,-1
 159 256 l 1,39,-1
 159 222 l 1,40,-1
 159 210 l 1,41,-1
 146 210 l 1,42,-1
 113 210 l 1,43,-1
 113 188 l 1,44,-1
 546 188 l 1,45,-1
 559 188 l 1,46,-1
 559 175 l 1,47,-1
 559 129 l 1,48,-1
 559 116 l 1,49,-1
 546 116 l 1,50,-1
 339 116 l 2,51,52
 233 116 233 116 168 115 c 0,53,54
 109 114 109 114 90 113 c 2,55,-1
 55 109 l 1,56,-1
 41 107 l 1,57,-1
 41 121 l 1,58,-1
 41 216 l 1,59,-1
 41 227 l 1,60,-1
 51 228 l 1,61,-1
 74 232 l 1,62,-1
 75 232 l 2,63,64
 79 232 79 232 82.5 233 c 128,-1,65
 86 234 86 234 87 235 c 0,66,67
 88 239 88 239 88 247 c 0,68,69
 88 249 88 249 88 252.5 c 128,-1,70
 88 256 88 256 88 257.5 c 128,-1,71
 88 259 88 259 88.5 262 c 128,-1,72
 89 265 89 265 89.5 267 c 128,-1,73
 90 269 90 269 91.5 271.5 c 128,-1,74
 93 274 93 274 95 276 c 0,75,76
 102 282 102 282 124 282 c 2,77,-1
 134 282 l 1,78,-1
 134 316 l 1,79,-1
 134 328 l 1,80,-1
 146 328 l 1,81,-1
 183 328 l 1,82,-1
 183 362 l 1,83,-1
 183 374 l 1,84,-1
 196 374 l 1,85,-1
 234 374 l 1,86,-1
 234 410 l 1,87,-1
 234 422 l 1,88,-1
 248 422 l 1,89,-1
 286 422 l 1,90,-1
 286 457 l 1,91,-1
 286 470 l 1,92,-1
 300 470 l 1,93,-1
 337 470 l 1,94,-1
 337 500 l 1,95,-1
 337 512 l 1,96,-1
 351 512 l 1,97,-1
 389 512 l 1,98,-1
 389 544 l 1,99,-1
 389 555 l 1,100,-1
 402 555 l 1,101,-1
 440 555 l 1,102,-1
 440 587 l 1,103,-1
 440 599 l 1,104,-1
 452 599 l 1,105,-1
 486 599 l 1,106,-1
 486 619 l 1,107,-1
 54 619 l 1,108,-1
 41 619 l 1,0,-1
EndSplineSet
Validated: 1025
EndChar

StartChar: bracketleft
Encoding: 91 91 61
Width: 550
Flags: W
LayerCount: 2
Fore
SplineSet
192 62 m 1,0,-1
 192 738 l 1,1,-1
 358 738 l 1,2,-1
 358 668 l 1,3,-1
 265 668 l 1,4,-1
 265 134 l 5,5,-1
 358 134 l 1,6,-1
 358 62 l 1,7,-1
 192 62 l 1,0,-1
EndSplineSet
Validated: 1
EndChar

StartChar: backslash
Encoding: 92 92 62
Width: 550
Flags: W
LayerCount: 2
Fore
SplineSet
123 587 m 1,0,-1
 123 680 l 1,1,-1
 123 692 l 1,2,-1
 136 692 l 1,3,-1
 182 692 l 1,4,-1
 194 692 l 1,5,-1
 194 680 l 1,6,-1
 194 600 l 1,7,-1
 228 600 l 1,8,-1
 241 600 l 1,9,-1
 241 587 l 1,10,-1
 241 506 l 1,11,-1
 274 506 l 1,12,-1
 287 506 l 1,13,-1
 287 494 l 1,14,-1
 287 412 l 1,15,-1
 322 412 l 1,16,-1
 334 412 l 1,17,-1
 334 400 l 1,18,-1
 334 320 l 1,19,-1
 368 320 l 1,20,-1
 380 320 l 1,21,-1
 380 307 l 1,22,-1
 380 226 l 1,23,-1
 414 226 l 1,24,-1
 427 226 l 1,25,-1
 427 214 l 1,26,-1
 427 121 l 1,27,-1
 427 108 l 1,28,-1
 414 108 l 1,29,-1
 368 108 l 1,30,-1
 355 108 l 1,31,-1
 355 121 l 1,32,-1
 355 202 l 1,33,-1
 322 202 l 1,34,-1
 309 202 l 1,35,-1
 309 214 l 1,36,-1
 309 294 l 1,37,-1
 274 294 l 1,38,-1
 262 294 l 1,39,-1
 262 307 l 1,40,-1
 262 388 l 1,41,-1
 228 388 l 1,42,-1
 216 388 l 1,43,-1
 216 400 l 1,44,-1
 216 482 l 1,45,-1
 182 482 l 1,46,-1
 169 482 l 1,47,-1
 169 494 l 1,48,-1
 169 574 l 1,49,-1
 136 574 l 1,50,-1
 123 574 l 1,51,-1
 123 587 l 1,0,-1
EndSplineSet
Validated: 1
EndChar

StartChar: bracketright
Encoding: 93 93 63
Width: 550
Flags: W
LayerCount: 2
Fore
SplineSet
192 668 m 1,0,-1
 192 738 l 1,1,-1
 358 738 l 1,2,-1
 358 62 l 1,3,-1
 192 62 l 1,4,-1
 192 134 l 1,5,-1
 286 134 l 5,6,-1
 286 668 l 1,7,-1
 192 668 l 1,0,-1
EndSplineSet
Validated: 1
EndChar

StartChar: asciicircum
Encoding: 94 94 64
Width: 550
Flags: W
LayerCount: 2
Fore
SplineSet
404 552 m 1,0,-1
 450 552 l 1,1,-1
 450 482 l 1,2,-1
 380 482 l 1,3,-1
 380 528 l 1,4,-1
 332 528 l 1,5,-1
 332 574 l 1,6,-1
 286 574 l 1,7,-1
 286 620 l 1,8,-1
 264 620 l 1,9,-1
 264 574 l 1,10,-1
 218 574 l 1,11,-1
 218 528 l 1,12,-1
 170 528 l 1,13,-1
 170 482 l 1,14,-1
 100 482 l 1,15,-1
 100 552 l 1,16,-1
 146 552 l 1,17,-1
 146 600 l 1,18,-1
 192 600 l 1,19,-1
 192 646 l 1,20,-1
 238 646 l 1,21,-1
 238 692 l 1,22,-1
 310 692 l 1,23,-1
 310 646 l 1,24,-1
 358 646 l 1,25,-1
 358 600 l 1,26,-1
 404 600 l 1,27,-1
 404 552 l 1,0,-1
EndSplineSet
Validated: 1
EndChar

StartChar: underscore
Encoding: 95 95 65
Width: 550
Flags: W
LayerCount: 2
Fore
SplineSet
76 75 m 1,0,-1
 76 121 l 1,1,-1
 76 134 l 1,2,-1
 88 134 l 1,3,-1
 462 134 l 1,4,-1
 474 134 l 1,5,-1
 474 121 l 1,6,-1
 474 75 l 1,7,-1
 474 62 l 1,8,-1
 462 62 l 1,9,-1
 88 62 l 1,10,-1
 76 62 l 1,11,-1
 76 75 l 1,0,-1
EndSplineSet
Validated: 1
EndChar

StartChar: grave
Encoding: 96 96 66
Width: 550
Flags: W
LayerCount: 2
Fore
SplineSet
216 592 m 1,0,-1
 216 639 l 1,1,-1
 216 652 l 1,2,-1
 228 652 l 1,3,-1
 274 652 l 1,4,-1
 287 652 l 1,5,-1
 287 639 l 1,6,-1
 287 604 l 1,7,-1
 322 604 l 1,8,-1
 334 604 l 1,9,-1
 334 592 l 1,10,-1
 334 546 l 1,11,-1
 334 534 l 1,12,-1
 322 534 l 1,13,-1
 274 534 l 1,14,-1
 262 534 l 1,15,-1
 262 546 l 1,16,-1
 262 580 l 1,17,-1
 228 580 l 1,18,-1
 216 580 l 1,19,-1
 216 592 l 1,0,-1
EndSplineSet
Validated: 1
EndChar

StartChar: a
Encoding: 97 97 67
Width: 575
Flags: W
LayerCount: 2
Fore
SplineSet
206 382 m 1,0,-1
 206 186 l 1,1,-1
 274 186 l 1,2,-1
 274 220 l 1,3,-1
 274 232 l 1,4,-1
 287 232 l 1,5,-1
 322 232 l 1,6,-1
 322 266 l 1,7,-1
 322 278 l 1,8,-1
 334 278 l 1,9,-1
 368 278 l 1,10,-1
 368 382 l 1,11,-1
 206 382 l 1,0,-1
182 127 m 1,12,-1
 182 160 l 1,13,-1
 148 160 l 1,14,-1
 136 160 l 1,15,-1
 136 172 l 1,16,-1
 136 395 l 1,17,-1
 136 407 l 1,18,-1
 148 407 l 1,19,-1
 182 407 l 1,20,-1
 182 440 l 1,21,-1
 182 453 l 1,22,-1
 194 453 l 1,23,-1
 380 453 l 1,24,-1
 392 453 l 1,25,-1
 392 440 l 1,26,-1
 392 407 l 1,27,-1
 427 407 l 1,28,-1
 440 407 l 1,29,-1
 440 395 l 1,30,-1
 440 126 l 1,31,-1
 440 114 l 1,32,-1
 427 114 l 1,33,-1
 380 114 l 1,34,-1
 368 114 l 1,35,-1
 368 127 l 1,36,-1
 368 208 l 1,37,-1
 346 208 l 1,38,-1
 346 173 l 1,39,-1
 346 160 l 1,40,-1
 334 160 l 1,41,-1
 300 160 l 1,42,-1
 300 127 l 1,43,-1
 300 114 l 1,44,-1
 287 114 l 1,45,-1
 194 114 l 1,46,-1
 182 114 l 1,47,-1
 182 127 l 1,12,-1
EndSplineSet
Validated: 1
EndChar

StartChar: b
Encoding: 98 98 68
Width: 600
Flags: W
LayerCount: 2
Fore
SplineSet
416 186 m 1,0,-1
 416 394 l 1,1,-1
 230 394 l 1,2,-1
 230 346 l 1,3,-1
 182 346 l 1,4,-1
 182 186 l 1,5,-1
 416 186 l 1,0,-1
440 453 m 1,6,-1
 440 408 l 1,7,-1
 488 408 l 1,8,-1
 488 160 l 5,9,-1
 440 160 l 1,10,-1
 440 114 l 1,11,-1
 158 114 l 1,12,-1
 158 160 l 1,13,-1
 112 160 l 1,14,-1
 112 639 l 1,15,-1
 182 639 l 1,16,-1
 182 407 l 1,17,-1
 204 407 l 1,18,-1
 204 453 l 1,19,-1
 440 453 l 1,6,-1
EndSplineSet
Validated: 1
EndChar

StartChar: c
Encoding: 99 99 69
Width: 575
Flags: W
LayerCount: 2
Fore
SplineSet
368 334 m 1,0,-1
 368 382 l 1,1,-1
 206 382 l 1,2,-1
 206 186 l 1,3,-1
 368 186 l 1,4,-1
 368 232 l 1,5,-1
 440 232 l 1,6,-1
 440 160 l 1,7,-1
 392 160 l 1,8,-1
 392 114 l 1,9,-1
 182 114 l 1,10,-1
 182 160 l 1,11,-1
 136 160 l 1,12,-1
 136 407 l 1,13,-1
 182 407 l 1,14,-1
 182 453 l 1,15,-1
 392 453 l 1,16,-1
 392 411 l 5,17,-1
 440 411 l 1,18,-1
 440 334 l 1,19,-1
 368 334 l 1,0,-1
EndSplineSet
Validated: 1
EndChar

StartChar: d
Encoding: 100 100 70
Width: 600
Flags: W
LayerCount: 2
Fore
SplineSet
184 186 m 1,0,-1
 416 186 l 1,1,-1
 416 348 l 1,2,-1
 370 348 l 1,3,-1
 370 394 l 1,4,-1
 184 394 l 1,5,-1
 184 186 l 1,0,-1
488 160 m 5,6,-1
 442 160 l 1,7,-1
 442 114 l 1,8,-1
 158 114 l 1,9,-1
 158 160 l 1,10,-1
 112 160 l 1,11,-1
 112 407 l 1,12,-1
 158 407 l 1,13,-1
 158 453 l 1,14,-1
 394 453 l 1,15,-1
 394 406 l 1,16,-1
 416 406 l 1,17,-1
 416 639 l 1,18,-1
 488 639 l 1,19,-1
 488 160 l 5,6,-1
EndSplineSet
Validated: 1
EndChar

StartChar: e
Encoding: 101 101 71
Width: 575
Flags: W
LayerCount: 2
Fore
SplineSet
148 408 m 1,0,-1
 182 408 l 1,1,-1
 182 440 l 1,2,-1
 182 453 l 1,3,-1
 194 453 l 1,4,-1
 380 453 l 1,5,-1
 392 453 l 1,6,-1
 392 440 l 1,7,-1
 392 410 l 1,8,-1
 427 410 l 1,9,-1
 440 410 l 1,10,-1
 440 398 l 1,11,-1
 440 312 l 1,12,-1
 440 300 l 1,13,-1
 427 300 l 1,14,-1
 392 300 l 1,15,-1
 392 266 l 1,16,-1
 392 254 l 1,17,-1
 380 254 l 1,18,-1
 206 254 l 1,19,-1
 206 186 l 1,20,-1
 368 186 l 1,21,-1
 368 220 l 1,22,-1
 368 232 l 1,23,-1
 380 232 l 1,24,-1
 427 232 l 1,25,-1
 440 232 l 1,26,-1
 440 220 l 1,27,-1
 440 173 l 1,28,-1
 440 160 l 1,29,-1
 427 160 l 1,30,-1
 392 160 l 1,31,-1
 392 127 l 1,32,-1
 392 114 l 1,33,-1
 380 114 l 1,34,-1
 194 114 l 1,35,-1
 182 114 l 1,36,-1
 182 127 l 1,37,-1
 182 160 l 1,38,-1
 148 160 l 1,39,-1
 136 160 l 1,40,-1
 136 172 l 1,41,-1
 136 396 l 1,42,-1
 136 408 l 1,43,-1
 148 408 l 1,0,-1
368 394 m 1,44,-1
 206 394 l 1,45,-1
 206 326 l 1,46,-1
 368 326 l 1,47,-1
 368 394 l 1,44,-1
EndSplineSet
Validated: 1
EndChar

StartChar: f
Encoding: 102 102 72
Width: 575
Flags: W
LayerCount: 2
Fore
SplineSet
240 592 m 1,0,-1
 276 592 l 1,1,-1
 276 626 l 1,2,-1
 276 639 l 1,3,-1
 288 639 l 1,4,-1
 381 639 l 1,5,-1
 394 639 l 1,6,-1
 394 626 l 1,7,-1
 394 580 l 1,8,-1
 394 567 l 1,9,-1
 381 567 l 1,10,-1
 300 567 l 1,11,-1
 300 453 l 1,12,-1
 381 453 l 1,13,-1
 394 453 l 1,14,-1
 394 440 l 1,15,-1
 394 394 l 1,16,-1
 394 382 l 1,17,-1
 381 382 l 1,18,-1
 300 382 l 1,19,-1
 300 126 l 1,20,-1
 300 114 l 1,21,-1
 288 114 l 1,22,-1
 240 114 l 1,23,-1
 228 114 l 1,24,-1
 228 126 l 1,25,-1
 228 382 l 1,26,-1
 194 382 l 1,27,-1
 182 382 l 1,28,-1
 182 394 l 1,29,-1
 182 440 l 1,30,-1
 182 453 l 1,31,-1
 194 453 l 1,32,-1
 228 453 l 1,33,-1
 228 580 l 1,34,-1
 228 592 l 1,35,-1
 240 592 l 1,0,-1
EndSplineSet
Validated: 1
EndChar

StartChar: g
Encoding: 103 103 73
Width: 575
Flags: W
LayerCount: 2
Fore
SplineSet
368 208 m 1,0,-1
 346 208 l 1,1,-1
 346 173 l 1,2,-1
 346 160 l 1,3,-1
 334 160 l 1,4,-1
 194 160 l 1,5,-1
 182 160 l 1,6,-1
 182 173 l 1,7,-1
 182 208 l 1,8,-1
 148 208 l 1,9,-1
 136 208 l 1,10,-1
 136 219 l 1,11,-1
 136 395 l 1,12,-1
 136 407 l 1,13,-1
 148 407 l 1,14,-1
 182 407 l 1,15,-1
 182 440 l 1,16,-1
 182 453 l 1,17,-1
 194 453 l 1,18,-1
 380 453 l 1,19,-1
 392 453 l 1,20,-1
 392 440 l 1,21,-1
 392 407 l 1,22,-1
 427 407 l 1,23,-1
 440 407 l 1,24,-1
 440 395 l 1,25,-1
 440 46 l 1,26,-1
 440 34 l 1,27,-1
 427 34 l 1,28,-1
 392 34 l 1,29,-1
 392 0 l 1,30,-1
 392 -12 l 1,31,-1
 380 -12 l 1,32,-1
 194 -12 l 1,33,-1
 182 -12 l 1,34,-1
 182 0 l 1,35,-1
 182 34 l 1,36,-1
 148 34 l 1,37,-1
 136 34 l 1,38,-1
 136 46 l 1,39,-1
 136 92 l 1,40,-1
 136 105 l 1,41,-1
 148 105 l 1,42,-1
 194 105 l 1,43,-1
 206 105 l 1,44,-1
 206 92 l 1,45,-1
 206 59 l 1,46,-1
 368 59 l 1,47,-1
 368 208 l 1,0,-1
206 232 m 1,48,-1
 322 232 l 1,49,-1
 322 266 l 1,50,-1
 322 278 l 1,51,-1
 334 278 l 1,52,-1
 368 278 l 1,53,-1
 368 382 l 1,54,-1
 206 382 l 1,55,-1
 206 232 l 1,48,-1
EndSplineSet
Validated: 1
EndChar

StartChar: h
Encoding: 104 104 74
Width: 600
Flags: W
LayerCount: 2
Fore
SplineSet
221 346 m 1,0,-1
 186 346 l 1,1,-1
 193 127 l 1,2,-1
 194 114 l 1,3,-1
 181 114 l 1,4,-1
 135 114 l 1,5,-1
 123 114 l 1,6,-1
 123 126 l 1,7,-1
 120 254 l 2,8,9
 116 392 116 392 116 502 c 2,10,-1
 116 626 l 1,11,-1
 116 639 l 1,12,-1
 128 639 l 1,13,-1
 174 639 l 1,14,-1
 186 639 l 1,15,-1
 186 626 l 1,16,-1
 186 407 l 1,17,-1
 208 407 l 1,18,-1
 208 440 l 1,19,-1
 208 453 l 1,20,-1
 221 453 l 1,21,-1
 432 453 l 1,22,-1
 444 453 l 1,23,-1
 444 440 l 1,24,-1
 444 417 l 2,25,26
 444 415 444 415 444.5 412.5 c 128,-1,27
 445 410 445 410 445 409 c 2,28,-1
 453 408 l 1,29,-1
 472 408 l 1,30,-1
 484 408 l 1,31,-1
 484 396 l 1,32,-1
 484 127 l 1,33,-1
 484 114 l 1,34,-1
 472 114 l 1,35,-1
 432 114 l 1,36,-1
 420 114 l 1,37,-1
 420 127 l 1,38,-1
 420 394 l 1,39,-1
 234 394 l 1,40,-1
 234 359 l 1,41,-1
 234 346 l 1,42,-1
 221 346 l 1,0,-1
EndSplineSet
Validated: 1
EndChar

StartChar: i
Encoding: 105 105 75
Width: 575
Flags: W
LayerCount: 2
Fore
SplineSet
252 114 m 1,0,-1
 252 127 l 1,1,-1
 252 440 l 1,2,-1
 252 453 l 1,3,-1
 264 453 l 1,4,-1
 310 453 l 1,5,-1
 323 453 l 1,6,-1
 323 440 l 1,7,-1
 323 127 l 1,8,-1
 323 114 l 1,9,-1
 310 114 l 1,10,-1
 264 114 l 1,11,-1
 252 114 l 1,0,-1
252 521 m 1,12,-1
 252 534 l 1,13,-1
 252 626 l 1,14,-1
 252 639 l 1,15,-1
 264 639 l 1,16,-1
 310 639 l 1,17,-1
 323 639 l 1,18,-1
 323 626 l 1,19,-1
 323 534 l 1,20,-1
 323 521 l 1,21,-1
 310 521 l 1,22,-1
 264 521 l 1,23,-1
 252 521 l 1,12,-1
EndSplineSet
Validated: 1
EndChar

StartChar: j
Encoding: 106 106 76
Width: 575
Flags: W
LayerCount: 2
Fore
SplineSet
346 521 m 1,0,-1
 346 534 l 1,1,-1
 346 626 l 1,2,-1
 346 639 l 1,3,-1
 358 639 l 1,4,-1
 404 639 l 1,5,-1
 416 639 l 1,6,-1
 416 626 l 1,7,-1
 416 534 l 1,8,-1
 416 521 l 1,9,-1
 404 521 l 1,10,-1
 358 521 l 1,11,-1
 346 521 l 1,0,-1
204 0 m 1,12,-1
 204 34 l 1,13,-1
 171 34 l 1,14,-1
 158 34 l 1,15,-1
 158 46 l 1,16,-1
 158 140 l 1,17,-1
 158 152 l 1,18,-1
 171 152 l 1,19,-1
 217 152 l 1,20,-1
 230 152 l 1,21,-1
 230 140 l 1,22,-1
 230 59 l 1,23,-1
 346 59 l 1,24,-1
 346 440 l 1,25,-1
 346 453 l 1,26,-1
 358 453 l 1,27,-1
 404 453 l 1,28,-1
 416 453 l 1,29,-1
 416 440 l 1,30,-1
 416 46 l 1,31,-1
 416 34 l 1,32,-1
 404 34 l 1,33,-1
 370 34 l 1,34,-1
 370 0 l 1,35,-1
 370 -12 l 1,36,-1
 358 -12 l 1,37,-1
 217 -12 l 1,38,-1
 204 -12 l 1,39,-1
 204 0 l 1,12,-1
EndSplineSet
Validated: 1
EndChar

StartChar: k
Encoding: 107 107 77
Width: 575
Flags: W
LayerCount: 2
Fore
SplineSet
158 114 m 1,0,-1
 158 127 l 1,1,-1
 158 626 l 1,2,-1
 158 639 l 1,3,-1
 171 639 l 1,4,-1
 217 639 l 1,5,-1
 230 639 l 1,6,-1
 230 626 l 1,7,-1
 230 407 l 1,8,-1
 298 407 l 1,9,-1
 298 440 l 1,10,-1
 298 453 l 1,11,-1
 311 453 l 1,12,-1
 404 453 l 1,13,-1
 416 453 l 1,14,-1
 416 440 l 1,15,-1
 416 399 l 1,16,-1
 416 388 l 1,17,-1
 404 388 l 1,18,-1
 324 388 l 1,19,-1
 324 326 l 1,20,-1
 358 326 l 1,21,-1
 370 326 l 1,22,-1
 370 313 l 1,23,-1
 370 232 l 1,24,-1
 404 232 l 1,25,-1
 416 232 l 1,26,-1
 416 220 l 1,27,-1
 416 127 l 1,28,-1
 416 114 l 1,29,-1
 404 114 l 1,30,-1
 358 114 l 1,31,-1
 346 114 l 1,32,-1
 346 127 l 1,33,-1
 346 208 l 1,34,-1
 311 208 l 1,35,-1
 298 208 l 1,36,-1
 298 220 l 1,37,-1
 298 300 l 1,38,-1
 265 300 l 1,39,-1
 252 300 l 1,40,-1
 252 313 l 1,41,-1
 252 346 l 1,42,-1
 230 346 l 1,43,-1
 230 127 l 1,44,-1
 230 114 l 1,45,-1
 217 114 l 1,46,-1
 171 114 l 1,47,-1
 158 114 l 1,0,-1
EndSplineSet
Validated: 1
EndChar

StartChar: l
Encoding: 108 108 78
Width: 575
Flags: W
LayerCount: 2
Fore
SplineSet
182 567 m 1,0,-1
 182 639 l 1,1,-1
 300 639 l 1,2,-1
 300 186 l 1,3,-1
 322 186 l 1,4,-1
 322 232 l 1,5,-1
 394 232 l 1,6,-1
 394 160 l 1,7,-1
 346 160 l 5,8,-1
 346 114 l 1,9,-1
 228 114 l 1,10,-1
 228 567 l 1,11,-1
 182 567 l 1,0,-1
EndSplineSet
Validated: 1
EndChar

StartChar: m
Encoding: 109 109 79
Width: 600
Flags: W
LayerCount: 2
Fore
SplineSet
488 446 m 1,0,-1
 488 412 l 1,1,-1
 522 412 l 1,2,-1
 534 412 l 1,3,-1
 534 400 l 1,4,-1
 534 120 l 1,5,-1
 534 108 l 1,6,-1
 522 108 l 1,7,-1
 476 108 l 1,8,-1
 464 108 l 1,9,-1
 464 120 l 1,10,-1
 464 387 l 1,11,-1
 341 387 l 1,12,-1
 341 120 l 1,13,-1
 341 108 l 1,14,-1
 326 108 l 1,15,-1
 275 108 l 1,16,-1
 261 108 l 1,17,-1
 261 120 l 1,18,-1
 261 387 l 1,19,-1
 136 387 l 1,20,-1
 136 120 l 1,21,-1
 136 108 l 1,22,-1
 124 108 l 1,23,-1
 78 108 l 1,24,-1
 66 108 l 1,25,-1
 66 120 l 1,26,-1
 66 400 l 1,27,-1
 66 412 l 1,28,-1
 78 412 l 1,29,-1
 112 412 l 1,30,-1
 112 446 l 1,31,-1
 112 459 l 1,32,-1
 124 459 l 1,33,-1
 275 459 l 1,34,-1
 289 459 l 1,35,-1
 289 446 l 1,36,-1
 289 412 l 1,37,-1
 312 412 l 1,38,-1
 312 446 l 1,39,-1
 312 459 l 1,40,-1
 326 459 l 1,41,-1
 476 459 l 1,42,-1
 488 459 l 1,43,-1
 488 446 l 1,0,-1
EndSplineSet
Validated: 1
EndChar

StartChar: n
Encoding: 110 110 80
Width: 575
Flags: W
LayerCount: 2
Fore
SplineSet
148 400 m 1,0,-1
 182 400 l 1,1,-1
 182 434 l 1,2,-1
 182 446 l 1,3,-1
 194 446 l 1,4,-1
 380 446 l 1,5,-1
 392 446 l 1,6,-1
 392 434 l 1,7,-1
 392 400 l 1,8,-1
 427 400 l 1,9,-1
 440 400 l 1,10,-1
 440 388 l 1,11,-1
 440 108 l 1,12,-1
 440 96 l 1,13,-1
 427 96 l 1,14,-1
 380 96 l 1,15,-1
 368 96 l 1,16,-1
 368 108 l 1,17,-1
 368 375 l 1,18,-1
 206 375 l 1,19,-1
 206 108 l 1,20,-1
 206 96 l 1,21,-1
 194 96 l 1,22,-1
 148 96 l 1,23,-1
 136 96 l 1,24,-1
 136 108 l 1,25,-1
 136 388 l 1,26,-1
 136 400 l 1,27,-1
 148 400 l 1,0,-1
EndSplineSet
Validated: 1
EndChar

StartChar: o
Encoding: 111 111 81
Width: 575
Flags: W
LayerCount: 2
Fore
SplineSet
206 375 m 1,0,-1
 206 180 l 1,1,-1
 368 180 l 1,2,-1
 368 375 l 1,3,-1
 206 375 l 1,0,-1
182 121 m 1,4,-1
 182 156 l 1,5,-1
 148 156 l 1,6,-1
 136 156 l 1,7,-1
 136 167 l 1,8,-1
 136 388 l 1,9,-1
 136 400 l 1,10,-1
 148 400 l 1,11,-1
 182 400 l 1,12,-1
 182 434 l 1,13,-1
 182 446 l 1,14,-1
 194 446 l 1,15,-1
 380 446 l 1,16,-1
 392 446 l 1,17,-1
 392 434 l 1,18,-1
 392 400 l 1,19,-1
 427 400 l 1,20,-1
 440 400 l 1,21,-1
 440 388 l 1,22,-1
 440 167 l 1,23,-1
 440 156 l 1,24,-1
 427 156 l 1,25,-1
 392 156 l 1,26,-1
 392 121 l 1,27,-1
 392 108 l 1,28,-1
 380 108 l 1,29,-1
 194 108 l 1,30,-1
 182 108 l 1,31,-1
 182 121 l 1,4,-1
EndSplineSet
Validated: 1
EndChar

StartChar: p
Encoding: 112 112 82
Width: 575
Flags: W
LayerCount: 2
Fore
SplineSet
206 180 m 1,0,-1
 368 180 l 1,1,-1
 368 375 l 1,2,-1
 206 375 l 1,3,-1
 206 180 l 1,0,-1
427 156 m 1,4,-1
 392 156 l 1,5,-1
 392 121 l 1,6,-1
 392 108 l 1,7,-1
 380 108 l 1,8,-1
 206 108 l 1,9,-1
 206 -6 l 1,10,-1
 206 -18 l 1,11,-1
 194 -18 l 1,12,-1
 148 -18 l 1,13,-1
 136 -18 l 1,14,-1
 136 -6 l 1,15,-1
 136 388 l 1,16,-1
 136 400 l 1,17,-1
 148 400 l 1,18,-1
 182 400 l 1,19,-1
 182 434 l 1,20,-1
 182 446 l 1,21,-1
 194 446 l 1,22,-1
 380 446 l 1,23,-1
 392 446 l 1,24,-1
 392 434 l 1,25,-1
 392 400 l 1,26,-1
 427 400 l 1,27,-1
 440 400 l 1,28,-1
 440 388 l 1,29,-1
 440 167 l 1,30,-1
 440 156 l 1,31,-1
 427 156 l 1,4,-1
EndSplineSet
Validated: 1
EndChar

StartChar: q
Encoding: 113 113 83
Width: 600
Flags: W
LayerCount: 2
Fore
SplineSet
134 121 m 1,0,-1
 134 156 l 1,1,-1
 101 156 l 1,2,-1
 88 156 l 1,3,-1
 88 167 l 1,4,-1
 88 388 l 1,5,-1
 88 400 l 1,6,-1
 101 400 l 1,7,-1
 134 400 l 1,8,-1
 134 434 l 1,9,-1
 134 446 l 1,10,-1
 147 446 l 1,11,-1
 354 446 l 1,12,-1
 369 446 l 1,13,-1
 369 434 l 1,14,-1
 369 400 l 1,15,-1
 406 400 l 1,16,-1
 418 400 l 1,17,-1
 418 388 l 1,18,-1
 418 53 l 1,19,-1
 440 53 l 1,20,-1
 440 88 l 1,21,-1
 440 100 l 1,22,-1
 452 100 l 1,23,-1
 499 100 l 1,24,-1
 512 100 l 1,25,-1
 512 88 l 1,26,-1
 512 40 l 1,27,-1
 512 28 l 1,28,-1
 499 28 l 1,29,-1
 464 28 l 1,30,-1
 464 -6 l 1,31,-1
 464 -18 l 1,32,-1
 452 -18 l 1,33,-1
 354 -18 l 1,34,-1
 340 -18 l 1,35,-1
 340 -6 l 1,36,-1
 340 108 l 1,37,-1
 147 108 l 1,38,-1
 134 108 l 1,39,-1
 134 121 l 1,0,-1
160 180 m 1,40,-1
 340 180 l 1,41,-1
 340 375 l 1,42,-1
 160 375 l 1,43,-1
 160 180 l 1,40,-1
EndSplineSet
Validated: 1
EndChar

StartChar: r
Encoding: 114 114 84
Width: 575
Flags: W
LayerCount: 2
Fore
SplineSet
148 400 m 1,0,-1
 182 400 l 1,1,-1
 182 434 l 1,2,-1
 182 446 l 1,3,-1
 194 446 l 1,4,-1
 380 446 l 1,5,-1
 392 446 l 1,6,-1
 392 434 l 1,7,-1
 392 400 l 1,8,-1
 427 400 l 1,9,-1
 440 400 l 1,10,-1
 440 388 l 1,11,-1
 440 340 l 1,12,-1
 440 328 l 1,13,-1
 427 328 l 1,14,-1
 380 328 l 1,15,-1
 368 328 l 1,16,-1
 368 340 l 1,17,-1
 368 375 l 1,18,-1
 206 375 l 1,19,-1
 206 108 l 1,20,-1
 206 96 l 1,21,-1
 194 96 l 1,22,-1
 148 96 l 1,23,-1
 136 96 l 1,24,-1
 136 108 l 1,25,-1
 136 388 l 1,26,-1
 136 400 l 1,27,-1
 148 400 l 1,0,-1
EndSplineSet
Validated: 1
EndChar

StartChar: s
Encoding: 115 115 85
Width: 575
Flags: W
LayerCount: 2
Fore
SplineSet
404 160 m 1,0,-1
 371 160 l 1,1,-1
 371 127 l 1,2,-1
 371 114 l 1,3,-1
 358 114 l 1,4,-1
 178 114 l 1,5,-1
 166 114 l 1,6,-1
 166 127 l 1,7,-1
 166 173 l 1,8,-1
 166 186 l 1,9,-1
 178 186 l 1,10,-1
 346 186 l 1,11,-1
 346 254 l 1,12,-1
 291 254 l 2,13,14
 235 254 235 254 223 259 c 0,15,16
 205 268 205 268 205 292 c 0,17,18
 205 294 205 294 205 296.5 c 128,-1,19
 205 299 205 299 204 300 c 0,20,21
 202 300 202 300 201 300 c 128,-1,22
 200 300 200 300 197 300 c 0,23,24
 178 300 178 300 171 308 c 0,25,26
 159 320 159 320 159 357 c 0,27,28
 159 361 159 361 158.5 368.5 c 128,-1,29
 158 376 158 376 158.5 379 c 128,-1,30
 159 382 159 382 159.5 387 c 128,-1,31
 160 392 160 392 162 395.5 c 128,-1,32
 164 399 164 399 167 401 c 0,33,34
 175 407 175 407 195 407 c 2,35,-1
 205 407 l 1,36,-1
 205 440 l 1,37,-1
 205 453 l 1,38,-1
 217 453 l 1,39,-1
 404 453 l 1,40,-1
 417 453 l 1,41,-1
 417 440 l 1,42,-1
 417 394 l 1,43,-1
 417 382 l 1,44,-1
 404 382 l 1,45,-1
 230 382 l 1,46,-1
 230 326 l 1,47,-1
 358 326 l 1,48,-1
 371 326 l 1,49,-1
 371 313 l 1,50,-1
 371 278 l 1,51,-1
 404 278 l 1,52,-1
 417 278 l 1,53,-1
 417 266 l 1,54,-1
 417 173 l 1,55,-1
 417 160 l 1,56,-1
 404 160 l 1,0,-1
EndSplineSet
Validated: 1
EndChar

StartChar: t
Encoding: 116 116 86
Width: 575
Flags: W
LayerCount: 2
Fore
SplineSet
158 453 m 1,0,-1
 252 453 l 1,1,-1
 252 567 l 1,2,-1
 324 567 l 1,3,-1
 324 453 l 1,4,-1
 416 453 l 1,5,-1
 416 382 l 1,6,-1
 324 382 l 1,7,-1
 324 186 l 1,8,-1
 346 186 l 1,9,-1
 346 232 l 1,10,-1
 418 232 l 1,11,-1
 418 155 l 1,12,-1
 370 155 l 1,13,-1
 370 114 l 1,14,-1
 252 114 l 1,15,-1
 252 382 l 1,16,-1
 158 382 l 1,17,-1
 158 453 l 1,0,-1
EndSplineSet
Validated: 1
EndChar

StartChar: u
Encoding: 117 117 87
Width: 575
Flags: W
LayerCount: 2
Fore
SplineSet
136 150 m 1,0,-1
 136 161 l 1,1,-1
 136 428 l 1,2,-1
 136 441 l 1,3,-1
 148 441 l 1,4,-1
 194 441 l 1,5,-1
 206 441 l 1,6,-1
 206 428 l 1,7,-1
 206 174 l 1,8,-1
 368 174 l 1,9,-1
 368 428 l 1,10,-1
 368 441 l 1,11,-1
 380 441 l 1,12,-1
 427 441 l 1,13,-1
 440 441 l 1,14,-1
 440 428 l 1,15,-1
 440 161 l 1,16,-1
 440 150 l 1,17,-1
 427 150 l 1,18,-1
 392 150 l 1,19,-1
 392 115 l 1,20,-1
 392 102 l 1,21,-1
 380 102 l 1,22,-1
 194 102 l 1,23,-1
 182 102 l 1,24,-1
 182 115 l 1,25,-1
 182 150 l 1,26,-1
 148 150 l 1,27,-1
 136 150 l 1,0,-1
EndSplineSet
Validated: 1
EndChar

StartChar: v
Encoding: 118 118 88
Width: 600
Flags: W
LayerCount: 2
Fore
SplineSet
112 374 m 1,0,-1
 112 385 l 1,1,-1
 112 428 l 1,2,-1
 112 441 l 1,3,-1
 125 441 l 1,4,-1
 171 441 l 1,5,-1
 184 441 l 1,6,-1
 184 428 l 1,7,-1
 184 397 l 1,8,-1
 218 397 l 1,9,-1
 230 397 l 1,10,-1
 230 386 l 1,11,-1
 230 314 l 1,12,-1
 271 314 l 1,13,-1
 286 314 l 1,14,-1
 286 301 l 1,15,-1
 286 220 l 1,16,-1
 314 220 l 1,17,-1
 314 301 l 1,18,-1
 314 314 l 1,19,-1
 329 314 l 1,20,-1
 370 314 l 1,21,-1
 370 386 l 1,22,-1
 370 397 l 1,23,-1
 382 397 l 1,24,-1
 416 397 l 1,25,-1
 416 428 l 1,26,-1
 416 441 l 1,27,-1
 429 441 l 1,28,-1
 475 441 l 1,29,-1
 488 441 l 1,30,-1
 488 428 l 1,31,-1
 488 385 l 1,32,-1
 488 374 l 1,33,-1
 475 374 l 1,34,-1
 442 374 l 1,35,-1
 442 300 l 1,36,-1
 442 288 l 1,37,-1
 429 288 l 1,38,-1
 394 288 l 1,39,-1
 394 208 l 1,40,-1
 394 196 l 1,41,-1
 382 196 l 1,42,-1
 345 196 l 1,43,-1
 345 115 l 1,44,-1
 345 102 l 1,45,-1
 329 102 l 1,46,-1
 271 102 l 1,47,-1
 255 102 l 1,48,-1
 255 115 l 1,49,-1
 255 196 l 1,50,-1
 218 196 l 1,51,-1
 206 196 l 1,52,-1
 206 208 l 1,53,-1
 206 288 l 1,54,-1
 171 288 l 1,55,-1
 158 288 l 1,56,-1
 158 300 l 1,57,-1
 158 374 l 1,58,-1
 125 374 l 1,59,-1
 112 374 l 1,0,-1
EndSplineSet
Validated: 1
EndChar

StartChar: w
Encoding: 119 119 89
Width: 600
Flags: W
LayerCount: 2
Fore
SplineSet
112 150 m 1,0,-1
 112 161 l 1,1,-1
 112 428 l 1,2,-1
 112 441 l 1,3,-1
 125 441 l 1,4,-1
 171 441 l 1,5,-1
 184 441 l 1,6,-1
 184 428 l 1,7,-1
 184 174 l 1,8,-1
 255 174 l 1,9,-1
 255 428 l 1,10,-1
 255 441 l 1,11,-1
 271 441 l 1,12,-1
 329 441 l 1,13,-1
 345 441 l 1,14,-1
 345 428 l 1,15,-1
 345 174 l 1,16,-1
 416 174 l 1,17,-1
 416 428 l 1,18,-1
 416 441 l 1,19,-1
 429 441 l 1,20,-1
 475 441 l 1,21,-1
 488 441 l 1,22,-1
 488 428 l 1,23,-1
 488 161 l 1,24,-1
 488 150 l 1,25,-1
 475 150 l 1,26,-1
 442 150 l 1,27,-1
 442 115 l 1,28,-1
 442 102 l 1,29,-1
 429 102 l 1,30,-1
 329 102 l 1,31,-1
 314 102 l 1,32,-1
 314 115 l 1,33,-1
 314 150 l 1,34,-1
 286 150 l 1,35,-1
 286 115 l 1,36,-1
 286 102 l 1,37,-1
 271 102 l 1,38,-1
 171 102 l 1,39,-1
 158 102 l 1,40,-1
 158 115 l 1,41,-1
 158 150 l 1,42,-1
 125 150 l 1,43,-1
 112 150 l 1,0,-1
EndSplineSet
Validated: 1
EndChar

StartChar: x
Encoding: 120 120 90
Width: 600
Flags: W
LayerCount: 2
Fore
SplineSet
112 374 m 1,0,-1
 112 385 l 1,1,-1
 112 428 l 1,2,-1
 112 441 l 1,3,-1
 125 441 l 1,4,-1
 171 441 l 1,5,-1
 184 441 l 1,6,-1
 184 428 l 1,7,-1
 184 397 l 1,8,-1
 218 397 l 1,9,-1
 230 397 l 1,10,-1
 230 386 l 1,11,-1
 230 356 l 1,12,-1
 271 356 l 1,13,-1
 286 356 l 1,14,-1
 286 345 l 1,15,-1
 286 314 l 1,16,-1
 314 314 l 1,17,-1
 314 345 l 1,18,-1
 314 356 l 1,19,-1
 329 356 l 1,20,-1
 370 356 l 1,21,-1
 370 386 l 1,22,-1
 370 397 l 1,23,-1
 382 397 l 1,24,-1
 416 397 l 1,25,-1
 416 428 l 1,26,-1
 416 441 l 1,27,-1
 429 441 l 1,28,-1
 475 441 l 1,29,-1
 488 441 l 1,30,-1
 488 428 l 1,31,-1
 488 385 l 1,32,-1
 488 374 l 1,33,-1
 475 374 l 1,34,-1
 442 374 l 1,35,-1
 442 343 l 1,36,-1
 442 332 l 1,37,-1
 429 332 l 1,38,-1
 394 332 l 1,39,-1
 394 300 l 1,40,-1
 394 288 l 1,41,-1
 382 288 l 1,42,-1
 345 288 l 1,43,-1
 345 268 l 1,44,-1
 382 268 l 1,45,-1
 394 268 l 1,46,-1
 394 255 l 1,47,-1
 394 220 l 1,48,-1
 429 220 l 1,49,-1
 442 220 l 1,50,-1
 442 208 l 1,51,-1
 442 174 l 1,52,-1
 475 174 l 1,53,-1
 488 174 l 1,54,-1
 488 162 l 1,55,-1
 488 115 l 1,56,-1
 488 102 l 1,57,-1
 475 102 l 1,58,-1
 429 102 l 1,59,-1
 416 102 l 1,60,-1
 416 115 l 1,61,-1
 416 150 l 1,62,-1
 382 150 l 1,63,-1
 370 150 l 1,64,-1
 370 162 l 1,65,-1
 370 196 l 1,66,-1
 329 196 l 1,67,-1
 314 196 l 1,68,-1
 314 208 l 1,69,-1
 314 242 l 1,70,-1
 286 242 l 1,71,-1
 286 208 l 1,72,-1
 286 196 l 1,73,-1
 271 196 l 1,74,-1
 230 196 l 1,75,-1
 230 162 l 1,76,-1
 230 150 l 1,77,-1
 218 150 l 1,78,-1
 184 150 l 1,79,-1
 184 115 l 1,80,-1
 184 102 l 1,81,-1
 171 102 l 1,82,-1
 125 102 l 1,83,-1
 112 102 l 1,84,-1
 112 115 l 1,85,-1
 112 162 l 1,86,-1
 112 174 l 1,87,-1
 125 174 l 1,88,-1
 158 174 l 1,89,-1
 158 208 l 1,90,-1
 158 220 l 1,91,-1
 171 220 l 1,92,-1
 206 220 l 1,93,-1
 206 255 l 1,94,-1
 206 268 l 1,95,-1
 218 268 l 1,96,-1
 255 268 l 1,97,-1
 255 288 l 1,98,-1
 218 288 l 1,99,-1
 206 288 l 1,100,-1
 206 300 l 1,101,-1
 206 332 l 1,102,-1
 171 332 l 1,103,-1
 158 332 l 1,104,-1
 158 343 l 1,105,-1
 158 374 l 1,106,-1
 125 374 l 1,107,-1
 112 374 l 1,0,-1
EndSplineSet
Validated: 1025
EndChar

StartChar: y
Encoding: 121 121 91
Width: 575
Flags: W
LayerCount: 2
Fore
SplineSet
136 150 m 1,0,-1
 136 161 l 1,1,-1
 136 428 l 1,2,-1
 136 441 l 1,3,-1
 148 441 l 1,4,-1
 194 441 l 1,5,-1
 206 441 l 1,6,-1
 206 428 l 1,7,-1
 206 174 l 1,8,-1
 368 174 l 1,9,-1
 368 428 l 1,10,-1
 368 441 l 1,11,-1
 380 441 l 1,12,-1
 427 441 l 1,13,-1
 440 441 l 1,14,-1
 440 428 l 1,15,-1
 440 35 l 1,16,-1
 440 23 l 1,17,-1
 427 23 l 1,18,-1
 392 23 l 1,19,-1
 392 -12 l 1,20,-1
 392 -25 l 1,21,-1
 380 -25 l 1,22,-1
 194 -25 l 1,23,-1
 182 -25 l 1,24,-1
 182 -12 l 1,25,-1
 182 23 l 1,26,-1
 148 23 l 1,27,-1
 136 23 l 1,28,-1
 136 36 l 1,29,-1
 136 82 l 1,30,-1
 136 94 l 1,31,-1
 148 94 l 1,32,-1
 194 94 l 1,33,-1
 206 94 l 1,34,-1
 206 82 l 1,35,-1
 206 48 l 1,36,-1
 368 48 l 1,37,-1
 368 102 l 1,38,-1
 194 102 l 1,39,-1
 182 102 l 1,40,-1
 182 115 l 1,41,-1
 182 150 l 1,42,-1
 148 150 l 1,43,-1
 136 150 l 1,0,-1
EndSplineSet
Validated: 1
EndChar

StartChar: z
Encoding: 122 122 92
Width: 575
Flags: W
LayerCount: 2
Fore
SplineSet
136 375 m 1,0,-1
 136 388 l 1,1,-1
 136 434 l 1,2,-1
 136 446 l 1,3,-1
 148 446 l 1,4,-1
 427 446 l 1,5,-1
 440 446 l 1,6,-1
 440 434 l 1,7,-1
 440 348 l 1,8,-1
 440 337 l 1,9,-1
 427 337 l 1,10,-1
 392 337 l 1,11,-1
 392 306 l 1,12,-1
 392 294 l 1,13,-1
 380 294 l 1,14,-1
 346 294 l 1,15,-1
 346 261 l 1,16,-1
 346 248 l 1,17,-1
 334 248 l 1,18,-1
 254 248 l 1,19,-1
 254 214 l 1,20,-1
 254 202 l 1,21,-1
 241 202 l 1,22,-1
 206 202 l 1,23,-1
 206 180 l 1,24,-1
 427 180 l 1,25,-1
 440 180 l 1,26,-1
 440 168 l 1,27,-1
 440 121 l 1,28,-1
 440 108 l 1,29,-1
 427 108 l 1,30,-1
 148 108 l 1,31,-1
 136 108 l 1,32,-1
 136 121 l 1,33,-1
 136 214 l 1,34,-1
 136 226 l 1,35,-1
 148 226 l 1,36,-1
 182 226 l 1,37,-1
 182 261 l 1,38,-1
 182 274 l 1,39,-1
 194 274 l 1,40,-1
 228 274 l 1,41,-1
 228 307 l 1,42,-1
 228 320 l 1,43,-1
 241 320 l 1,44,-1
 322 320 l 1,45,-1
 322 347 l 1,46,-1
 322 357 l 1,47,-1
 334 357 l 1,48,-1
 368 357 l 1,49,-1
 368 375 l 1,50,-1
 148 375 l 1,51,-1
 136 375 l 1,0,-1
EndSplineSet
Validated: 1
EndChar

StartChar: braceleft
Encoding: 123 123 93
Width: 550
Flags: W
LayerCount: 2
Fore
SplineSet
286 646 m 1,0,-1
 286 680 l 1,1,-1
 286 692 l 1,2,-1
 298 692 l 1,3,-1
 392 692 l 1,4,-1
 404 692 l 1,5,-1
 404 680 l 1,6,-1
 404 633 l 1,7,-1
 404 620 l 1,8,-1
 392 620 l 1,9,-1
 311 620 l 1,10,-1
 311 400 l 1,11,-1
 311 388 l 1,12,-1
 298 388 l 1,13,-1
 217 388 l 1,14,-1
 217 320 l 1,15,-1
 298 320 l 1,16,-1
 311 320 l 1,17,-1
 311 307 l 1,18,-1
 311 88 l 1,19,-1
 392 88 l 1,20,-1
 404 88 l 1,21,-1
 404 75 l 1,22,-1
 404 28 l 1,23,-1
 404 16 l 1,24,-1
 392 16 l 1,25,-1
 298 16 l 1,26,-1
 286 16 l 1,27,-1
 286 28 l 1,28,-1
 286 51 l 1,29,-1
 286 62 l 2,30,31
 284 62 284 62 281 62 c 0,32,33
 278 62 278 62 276 62 c 0,34,35
 268 62 268 62 262 65 c 0,36,37
 255 68 255 68 250 74 c 0,38,39
 245 80 245 80 244 87 c 0,40,41
 242 96 242 96 241 118 c 0,42,43
 240 140 240 140 240 181 c 2,44,-1
 240 248 l 1,45,-1
 204 248 l 1,46,-1
 192 248 l 1,47,-1
 192 261 l 1,48,-1
 192 294 l 1,49,-1
 158 294 l 1,50,-1
 146 294 l 1,51,-1
 146 307 l 1,52,-1
 146 400 l 1,53,-1
 146 412 l 1,54,-1
 158 412 l 1,55,-1
 192 412 l 1,56,-1
 192 446 l 1,57,-1
 192 458 l 1,58,-1
 204 458 l 1,59,-1
 240 458 l 1,60,-1
 240 633 l 1,61,-1
 240 646 l 1,62,-1
 252 646 l 1,63,-1
 286 646 l 1,0,-1
EndSplineSet
Validated: 1
EndChar

StartChar: bar
Encoding: 124 124 94
Width: 550
Flags: W
LayerCount: 2
Fore
SplineSet
239 24 m 1,0,-1
 239 679 l 1,1,-1
 239 692 l 1,2,-1
 252 692 l 1,3,-1
 298 692 l 1,4,-1
 311 692 l 1,5,-1
 311 679 l 1,6,-1
 311 24 l 1,7,-1
 311 12 l 1,8,-1
 298 12 l 1,9,-1
 252 12 l 1,10,-1
 239 12 l 1,11,-1
 239 24 l 1,0,-1
EndSplineSet
Validated: 1
EndChar

StartChar: braceright
Encoding: 125 125 95
Width: 550
Flags: W
LayerCount: 2
Fore
SplineSet
145 632 m 1,0,-1
 145 679 l 1,1,-1
 145 692 l 1,2,-1
 158 692 l 1,3,-1
 252 692 l 1,4,-1
 264 692 l 1,5,-1
 264 679 l 1,6,-1
 264 644 l 1,7,-1
 298 644 l 1,8,-1
 311 644 l 1,9,-1
 311 632 l 1,10,-1
 311 456 l 1,11,-1
 346 456 l 1,12,-1
 358 456 l 1,13,-1
 358 444 l 1,14,-1
 358 410 l 1,15,-1
 392 410 l 1,16,-1
 405 410 l 1,17,-1
 405 398 l 1,18,-1
 405 304 l 1,19,-1
 405 292 l 1,20,-1
 392 292 l 1,21,-1
 358 292 l 1,22,-1
 358 257 l 1,23,-1
 358 244 l 1,24,-1
 346 244 l 1,25,-1
 311 244 l 1,26,-1
 311 71 l 1,27,-1
 311 58 l 1,28,-1
 298 58 l 1,29,-1
 264 58 l 1,30,-1
 264 24 l 1,31,-1
 264 12 l 1,32,-1
 252 12 l 1,33,-1
 158 12 l 1,34,-1
 145 12 l 1,35,-1
 145 24 l 1,36,-1
 145 71 l 1,37,-1
 145 84 l 1,38,-1
 158 84 l 1,39,-1
 239 84 l 1,40,-1
 239 304 l 1,41,-1
 239 316 l 1,42,-1
 252 316 l 1,43,-1
 333 316 l 1,44,-1
 333 386 l 1,45,-1
 252 386 l 1,46,-1
 239 386 l 1,47,-1
 239 398 l 1,48,-1
 239 620 l 1,49,-1
 158 620 l 1,50,-1
 145 620 l 1,51,-1
 145 632 l 1,0,-1
EndSplineSet
Validated: 1
EndChar

StartChar: asciitilde
Encoding: 126 126 96
Width: 550
Flags: W
LayerCount: 2
Fore
SplineSet
122 364 m 1,0,-1
 122 398 l 1,1,-1
 122 410 l 1,2,-1
 134 410 l 1,3,-1
 228 410 l 1,4,-1
 240 410 l 1,5,-1
 240 398 l 1,6,-1
 240 364 l 1,7,-1
 321 364 l 1,8,-1
 334 364 l 1,9,-1
 334 351 l 1,10,-1
 334 316 l 1,11,-1
 402 316 l 1,12,-1
 402 351 l 1,13,-1
 402 364 l 1,14,-1
 415 364 l 1,15,-1
 509 364 l 1,16,-1
 522 364 l 1,17,-1
 522 351 l 1,18,-1
 522 304 l 1,19,-1
 522 292 l 1,20,-1
 509 292 l 1,21,-1
 428 292 l 1,22,-1
 428 257 l 1,23,-1
 428 244 l 1,24,-1
 415 244 l 1,25,-1
 321 244 l 1,26,-1
 308 244 l 1,27,-1
 308 257 l 1,28,-1
 308 292 l 1,29,-1
 228 292 l 1,30,-1
 216 292 l 1,31,-1
 216 304 l 1,32,-1
 216 338 l 1,33,-1
 146 338 l 1,34,-1
 146 304 l 1,35,-1
 146 292 l 1,36,-1
 134 292 l 1,37,-1
 41 292 l 1,38,-1
 28 292 l 1,39,-1
 28 304 l 1,40,-1
 28 351 l 1,41,-1
 28 364 l 1,42,-1
 41 364 l 1,43,-1
 122 364 l 1,0,-1
EndSplineSet
Validated: 1
EndChar

StartChar: emdash
Encoding: 8212 8212 98
Width: 550
Flags: W
LayerCount: 2
Fore
SplineSet
30 384 m 1,0,-1
 520 384 l 1,1,-1
 520 313 l 1,2,-1
 30 313 l 1,3,-1
 30 384 l 1,0,-1
EndSplineSet
Validated: 1
EndChar
